<?xml version="1.0" encoding="UTF-8" standalone="no"?>
<svg xmlns="http://www.w3.org/2000/svg" id="svg75" stroke-miterlimit="10" stroke-linecap="square" stroke="none" fill="none" viewBox="0.0 0.0 800.0 343.38320209973756" version="1.1">
   <metadata id="metadata81">
      <rdf:RDF>
         <cc:Work rdf:about="">
            <dc:format>image/svg+xml</dc:format>
            <dc:type rdf:resource="http://purl.org/dc/dcmitype/StillImage" />
         </cc:Work>
      </rdf:RDF>
   </metadata>
   <defs id="defs79" />
   <clipPath id="p.0">
      <path id="path2" clip-rule="nonzero" d="m0 0l800.0 0l0 343.3832l-800.0 0l0 -343.3832z" />
   </clipPath>
   <g id="g73" clip-path="url(#p.0)">
      <path id="path5" fill-rule="evenodd" d="m0 0l800.0 0l0 343.3832l-800.0 0z" fill-opacity="0.0" fill="#000000" />
      <path id="path7" fill-rule="evenodd" d="m257.0971 45.25197c-3.6299133 0 -7.0577393 2.0498695 -8.590546 5.5590553l-4.62204 15.341206l-4.3543396 -1.9422531c-0.91864014 -0.40682602 -1.8740082 -0.5984268 -2.81102 -0.5984268c-2.6194305 0 -5.097122 1.4986877 -6.2309723 4.0131226l-1.9448853 4.4881897c-1.5406799 3.4173203 0 7.435692 3.417328 8.976379l35.839905 16.010498c0.90023804 0.4068222 1.8424988 0.5984268 2.7690125 0.5984268c2.5931702 0 5.070862 -1.4986877 6.207367 -4.01313l2.0078735 -4.488182c1.5406799 -3.417328 0 -7.4356995 -3.4147034 -8.976379l-4.422577 -1.9448853l8.372711 -13.66404c2.1443481 -4.755905 0 -10.317585 -4.7559204 -12.45932l-13.598419 -6.0971107c-1.2651062 -0.54330826 -2.5800476 -0.8031502 -3.8687744 -0.8031502z" fill="#47499f" />
      <path id="path9" fill-rule="evenodd" d="m210.52493 155.31233c-5.561676 0 -10.1154785 4.4881897 -10.1154785 10.047241c0 5.5616913 4.5538025 10.049881 10.1154785 10.049881c5.4934387 0 10.047241 -4.4881897 10.047241 -10.049881c0 -5.5590515 -4.5538025 -10.047241 -10.047241 -10.047241z" fill="#565dbe" />
      <path id="path11" fill-rule="evenodd" d="m210.52493 144.92914c11.254593 0 20.364838 9.178467 20.364838 20.430435c0 11.254593 -9.110245 20.433075 -20.364838 20.433075c-11.254593 0 -20.433075 -9.178482 -20.433075 -20.433075c0 -11.251968 9.178482 -20.430435 20.433075 -20.430435zm-68.88451 -23.000008c2.0236206 0 3.9973755 1.0551224 5.1102295 2.9711304c1.6089172 2.813652 0.6719208 6.430443 -2.141739 8.039375c-1.1390991 0.669281 -27.532799 16.813644 -32.958 59.818893c-2.6797867 20.900269 7.63517 30.278214 12.191605 33.29396c3.9238815 2.6036835 8.333336 3.9238892 12.671913 3.9238892c3.5852966 0 7.1233673 -0.90026855 10.304459 -2.719162c9.779526 -5.627289 14.871399 -19.091858 13.800522 -36.910767c-0.1338501 -3.280838 2.3438416 -6.0288696 5.6246796 -6.228348c0.12597656 -0.007873535 0.24934387 -0.013122559 0.37269592 -0.013122559c3.1154938 0 5.6640472 2.4147034 5.8582764 5.5721893c1.2729645 22.509186 -5.8950195 39.923874 -19.761154 47.89763c-5.0236206 2.8110352 -10.585297 4.286087 -16.144363 4.286087c-6.632538 0 -13.330704 -2.010498 -19.291336 -5.9632416c-13.265091 -8.908142 -19.763779 -25.522308 -17.41732 -44.611557c6.228348 -49.102356 37.44619 -67.79265 38.784782 -68.53018c0.9422455 -0.5590515 1.9763641 -0.8267746 2.994751 -0.8267746zm52.923874 -38.3412c-47.580048 0 -100.00787 24.070862 -125.1181 66.70078c-2.543312 4.4199524 -4.8897705 8.908142 -6.89764 13.530182c-25.120735 13.131241 -31.753283 27.26509 -29.275593 32.690292c0.5564308 1.2440948 1.9606323 1.7270355 3.8110237 1.7270355c4.6377983 0 12.073494 -3.0367432 15.950134 -4.8083954l0 0c-10.3149605 46.2231 -2.8792686 92.24408 -2.8792686 92.24408l0 2.2756042c0 5.627289 4.6220474 10.183716 10.249344 10.183716l18.086617 0c5.6272964 0 10.181099 -4.556427 10.181099 -10.183716l0 -10.91864l0.20210266 0c0.8713913 -4.75589 4.958008 -8.307098 9.981628 -8.307098c4.9553757 0 9.110237 3.5512085 9.9133835 8.307098l0.3359604 0l0 10.91864c0 5.627289 4.5538025 10.183716 10.181099 10.183716l18.154861 0c5.627289 0 10.181091 -4.556427 10.181091 -10.183716l0 -10.91864l0.33596802 0c0.87138367 -4.75589 4.9553833 -8.307098 9.981628 -8.307098c4.9553833 0 9.041992 3.5512085 9.913376 8.307098l0.20210266 0l0 10.91864c0 5.627289 4.5538025 10.183716 10.181107 10.183716l18.154861 0c5.6246643 0 10.181091 -4.556427 10.181091 -10.183716l0 -10.91864l0.20210266 0c0.80314636 -4.75589 4.9553833 -8.307098 9.913391 -8.307098c4.958008 0 9.1102295 3.5512085 9.981628 8.307098l0.33332825 0l0 10.91864c0 5.627289 4.556427 10.183716 10.183731 10.183716l18.086609 0c5.692917 0 10.249344 -4.556427 10.249344 -10.183716l0 -16.010498l0 -14.0l0 -10.181107c-61.76378 -0.6036682 -70.80577 -35.703415 -70.80577 -35.703415l0 0c0 0 16.94751 17.548553 38.51706 22.640427c3.6062927 0.8530121 7.1207275 1.2152252 10.433075 1.2152252c16.443558 0 27.986862 -8.863525 21.855637 -10.257217c-7.3700867 -1.6771698 -25.522308 -30.614182 -14.737534 -41.868774c2.9921265 -3.1417236 6.0682526 -4.5433044 9.191605 -4.5433044c8.131226 0 16.590546 9.514435 24.771637 22.629913c10.795288 17.24672 33.102386 37.661423 58.20999 37.661423c1.2230835 0 2.4514465 -0.04724121 3.6876526 -0.14697266c46.22049 -3.6194305 49.168 -70.60631 13.464569 -81.322845c-4.4042053 -1.3333282 -8.286072 -1.9160004 -11.679779 -1.9160004c-23.404205 0 -23.446198 27.706024 -9.923889 27.706024c0.38058472 0 0.7716675 -0.023620605 1.1705933 -0.068237305c0.6351929 -0.07348633 1.2467346 -0.10760498 1.8372803 -0.10760498c11.910767 0 14.522308 14.215225 6.6719055 17.724411c-1.4671936 0.65878296 -2.9133606 0.9684906 -4.3464355 0.9684906c-10.545929 0 -20.251984 -16.86351 -30.22049 -36.73752c-9.713898 -19.629929 -23.64566 -56.874023 -79.85039 -75.897644c-12.149612 -4.1417313 -25.475067 -6.144356 -39.204727 -6.144356z" fill="#565dbe" />
      <path id="path13" fill-rule="evenodd" d="m410.8189 156.5853l0 17.884521l23.915985 0l0 36.7769c0 5.6955414 -2.7480164 8.708664 -7.637787 8.708664c-3.9527588 0 -7.4356995 -2.2782135 -11.18634 -6.9002686l-12.727051 15.073502c5.826782 6.832016 14.937012 10.448807 25.92389 10.448807c18.88977 0 29.005249 -9.443558 29.005249 -28.737534l0 -53.254593z" fill="#000000" />
      <path id="path15" fill-rule="evenodd" d="m467.08923 171.99213l0 30.278214c0 17.887146 9.913391 25.656174 23.11023 25.656174c5.8950195 0 11.456696 -2.0078735 15.543304 -6.228348l0 5.2230988l21.635162 0l0 -54.92914l-22.708649 0l0 25.790024c0 8.104996 -3.8188782 11.05249 -7.7690125 11.05249c-4.422577 0 -7.102356 -2.6115417 -7.102356 -10.448807l0 -26.393707z" fill="#000000" />
      <path id="path17" fill-rule="evenodd" d="m610.3438 170.98688c-0.055114746 0 -0.11022949 0 -0.16796875 0c-7.569519 0 -14.0 3.015747 -18.422546 8.307083c-3.8162842 -5.692917 -10.047241 -8.307083 -17.146973 -8.307083c-6.0288696 0 -11.456726 1.9422607 -15.608948 6.097107l0 -5.091858l-21.56958 0l0 54.92914l22.70868 0l0 -26.8609c0 -7.301834 3.0813599 -10.047241 7.0997314 -10.047241c3.8189087 0 6.1627197 2.6115417 6.1627197 9.443573l0 27.46457l22.70868 0l0 -26.8609c0 -7.301834 3.0813599 -10.047241 7.102356 -10.047241c3.6168213 0 6.1627197 2.6115417 6.1627197 9.443573l0 27.46457l22.70868 0l0 -31.34909c0 -17.204727 -9.359558 -24.585297 -21.737549 -24.585297z" fill="#000000" />
      <path id="path19" fill-rule="evenodd" d="m669.126 188.6063c5.0236206 0 8.976379 3.616806 8.976379 10.78479c0 7.0997314 -3.9527588 10.850388 -8.976379 10.850388c-5.0236206 0 -8.910767 -3.7506561 -8.910767 -10.850388c0 -7.167984 3.887146 -10.78479 8.910767 -10.78479zm-31.217834 -36.24147l0 74.55644l21.572144 0l0 -4.5538177c3.349121 3.7506561 8.238892 5.559067 15.070923 5.559067c14.404175 0 26.527527 -10.850403 26.527527 -28.53543c0 -17.685043 -12.123352 -28.469818 -26.527527 -28.469818c-6.0288696 0 -10.65094 1.5406799 -13.931763 4.755905l0 -23.312347z" fill="#000000" />
      <path id="path21" fill-rule="evenodd" d="m737.25195 188.6063c5.026245 0 8.976379 3.616806 8.976379 10.78479c0 7.0997314 -3.9501343 10.850388 -8.976379 10.850388c-5.0236206 0 -8.908142 -3.7506561 -8.908142 -10.850388c0 -7.167984 3.8845215 -10.78479 8.908142 -10.78479zm0 -17.685028c-18.553772 0 -31.952759 11.790024 -31.952759 28.469818c0 16.67978 13.398987 28.53543 31.952759 28.53543c18.690308 0 31.955383 -11.855652 31.955383 -28.53543c0 -16.679794 -13.265076 -28.469818 -31.955383 -28.469818z" fill="#000000" />
      <path id="path23" fill-rule="evenodd" d="m521.28345 246.95276l0 12.59317l1.7401733 0l0 -5.761154l6.7664185 0l0 5.761154l1.7427979 0l0 -12.59317l-1.7427979 0l0 5.5590515l-6.7664185 0l0 -5.5590515z" fill="#58595b" />
      <path id="path25" fill-rule="evenodd" d="m539.5696 255.52756l0 1.8084106c-0.19952393 0.19946289 -0.40161133 0.4015503 -0.5354614 0.5354309c-0.19946289 0.1338501 -0.4015503 0.2677002 -0.6010742 0.333313c-0.2020874 0.13388062 -0.4041748 0.20211792 -0.671875 0.2677307c-0.19946289 0.068237305 -0.46722412 0.068237305 -0.7349243 0.068237305c-0.2020874 0 -0.4041748 0 -0.60369873 -0.068237305c-0.1338501 -0.06561279 -0.3359375 -0.1338501 -0.4697876 -0.19946289c-0.06561279 -0.13388062 -0.19946289 -0.2677307 -0.2677002 -0.46981812c-0.06561279 -0.13388062 -0.1338501 -0.3333435 -0.1338501 -0.6010742c0 -0.2020874 0.068237305 -0.46981812 0.2020874 -0.6719055c0.1338501 -0.19946289 0.4015503 -0.3333435 0.7348633 -0.4671936c0.26776123 -0.20210266 0.7375488 -0.26771545 1.2073975 -0.40156555c0.5354004 -0.06825256 1.1390991 -0.13386536 1.8740234 -0.13386536zm-1.6063232 -5.091858c-0.6693115 0 -1.3411865 0.1338501 -1.876648 0.40156555c-0.5354004 0.20210266 -1.0708618 0.5354309 -1.6063232 1.005249l0.26776123 0.53544617c0.06561279 0.06561279 0.1338501 0.1338501 0.19946289 0.2020874c0.068237305 0.06562805 0.2020874 0.06562805 0.2677002 0.06562805c0.13647461 0 0.2703247 -0.06562805 0.46984863 -0.13386536c0.1338501 -0.068237305 0.2677002 -0.20210266 0.4697876 -0.33595276c0.19946289 -0.13386536 0.40161133 -0.19947815 0.6693115 -0.3333435c0.2677002 -0.068237305 0.6036377 -0.1338501 0.9370117 -0.1338501c0.6036377 0 1.0734863 0.19947815 1.3411865 0.5354309c0.2677002 0.33595276 0.46722412 0.87138367 0.46722412 1.6062927l0 0.6719208c-1.0026245 0 -1.8740234 0.13386536 -2.6115723 0.26771545c-0.6693115 0.13386536 -1.2047119 0.4015808 -1.6745605 0.60105896c-0.4015503 0.27033997 -0.7374878 0.5380554 -0.9370117 0.8713989c-0.2020874 0.3359375 -0.2677002 0.669281 -0.2677002 1.005249c0 0.4015503 0.06561279 0.8031311 0.19946289 1.0708618c0.1338501 0.2703247 0.26776123 0.5380554 0.5354614 0.7375183c0.2020874 0.20211792 0.4697876 0.33596802 0.80578613 0.46981812c0.2677002 0.06561279 0.6010132 0.1338501 0.9370117 0.1338501c0.3359375 0 0.6692505 -0.068237305 0.9369507 -0.1338501c0.26776123 -0.068237305 0.5354614 -0.1338501 0.8031616 -0.2677002c0.2020874 -0.06826782 0.46984863 -0.20211792 0.67193604 -0.4015808c0.2677002 -0.13388062 0.4671631 -0.33596802 0.6693115 -0.6036682l0.2020874 0.8713684c0.06561279 0.13388062 0.1338501 0.2677307 0.19946289 0.2677307c0.068237305 0.06561279 0.2020874 0.1338501 0.3359375 0.1338501l0.7349243 0l0 -5.6955414c0 -0.5354309 -0.06561279 -1.0026245 -0.19946289 -1.4068146c-0.1338501 -0.4015808 -0.3359375 -0.73490906 -0.60369873 -1.0708771c-0.2677002 -0.26771545 -0.6036377 -0.5354309 -1.005249 -0.669281c-0.4015503 -0.20210266 -0.8031616 -0.26771545 -1.338562 -0.26771545z" fill="#58595b" />
      <path id="path27" fill-rule="evenodd" d="m547.81104 251.70866c0.4015503 0 0.8031616 0.06561279 1.1390991 0.19947815c0.333313 0.1338501 0.6693115 0.40156555 0.9370117 0.8057709l0 4.286087c-0.3359375 0.46981812 -0.6693115 0.8031616 -1.0708618 1.005249c-0.40423584 0.2677307 -0.80578613 0.4015808 -1.3412476 0.4015808c-0.3359375 0 -0.6692505 -0.068237305 -0.9369507 -0.20211792c-0.33599854 -0.1338501 -0.5354614 -0.333313 -0.7375488 -0.6010437c-0.2020874 -0.2677002 -0.33599854 -0.6036682 -0.46984863 -1.005249c-0.06561279 -0.4015808 -0.1338501 -0.93699646 -0.1338501 -1.4750671c0 -1.1390991 0.2677002 -1.9422455 0.67193604 -2.5433044c0.4671631 -0.6036682 1.0708618 -0.87138367 1.9422607 -0.87138367zm2.0761108 -5.157486l0 4.9553833c-0.3359375 -0.33332825 -0.6693115 -0.6036682 -1.0708618 -0.80314636c-0.33599854 -0.13386536 -0.80578613 -0.26771545 -1.4068604 -0.26771545c-0.6036377 0 -1.1390991 0.1338501 -1.6088867 0.40156555c-0.46984863 0.20210266 -0.8713989 0.5354309 -1.2047119 0.9370117c-0.33599854 0.4015808 -0.53808594 0.93963623 -0.7375488 1.4750671c-0.2020874 0.6010437 -0.2677002 1.2047272 -0.2677002 1.8740082c0 0.73753357 0.06561279 1.341217 0.2677002 1.9448853c0.1338501 0.5354309 0.333313 1.0026245 0.6693115 1.4042053c0.2677002 0.40420532 0.6036377 0.6719055 1.0708618 0.8713989c0.4041748 0.2020874 0.8713379 0.2677002 1.3411865 0.2677002c0.6693115 0 1.2047119 -0.1338501 1.7401733 -0.4015808c0.4697876 -0.2677002 0.8713989 -0.669281 1.2729492 -1.0708618l0.1338501 1.0708618c0.068237305 0.20211792 0.2020874 0.33596802 0.4041748 0.33596802l0.9370117 0l0 -12.994751z" fill="#58595b" />
      <path id="path29" fill-rule="evenodd" d="m558.32806 251.70866c0.8713989 0 1.4724731 0.26771545 1.9422607 0.87138367c0.40161133 0.60105896 0.6693115 1.4042053 0.6693115 2.4776917c0 1.0708618 -0.2677002 1.8740234 -0.6693115 2.4776917c-0.4697876 0.6036682 -1.0708618 0.8713989 -1.9422607 0.8713989c-0.93963623 0 -1.6088867 -0.2677307 -2.010498 -0.8713989c-0.4697876 -0.6036682 -0.6692505 -1.4068298 -0.6692505 -2.4776917c0 -0.5354309 0.06561279 -1.005249 0.1338501 -1.4068146c0.1338501 -0.4015808 0.333313 -0.8031616 0.5354004 -1.0708771c0.20214844 -0.27033997 0.46984863 -0.46981812 0.8031616 -0.6719055c0.3359375 -0.13386536 0.7375488 -0.19947815 1.2073364 -0.19947815zm0 -1.2073517c-0.671875 0 -1.2729492 0.068237305 -1.8083496 0.26771545c-0.53808594 0.27033997 -0.93963623 0.5380554 -1.3412476 0.93963623c-0.333313 0.40156555 -0.6692505 0.87138367 -0.8713989 1.4724426c-0.19946289 0.5354309 -0.2677002 1.2073517 -0.2677002 1.8766327c0 0.73753357 0.068237305 1.3385925 0.2677002 1.8740234c0.20214844 0.6036682 0.53808594 1.0734863 0.8713989 1.4750671c0.40161133 0.4015808 0.8031616 0.669281 1.3412476 0.9370117c0.5354004 0.2020874 1.1364746 0.2677002 1.8083496 0.2677002c0.6010742 0 1.204773 -0.06561279 1.7401733 -0.2677002c0.5354614 -0.2677307 0.93963623 -0.5354309 1.3411865 -0.9370117c0.33337402 -0.4015808 0.6010742 -0.8713989 0.8031616 -1.4750671c0.2020874 -0.5354309 0.33599854 -1.1364899 0.33599854 -1.8740234c0 -0.669281 -0.13391113 -1.3412018 -0.33599854 -1.8766327c-0.2020874 -0.60105896 -0.4697876 -1.0708771 -0.8031616 -1.4724426c-0.4015503 -0.4015808 -0.8057251 -0.66929626 -1.3411865 -0.93963623c-0.5354004 -0.19947815 -1.1390991 -0.26771545 -1.7401733 -0.26771545z" fill="#58595b" />
      <path id="path31" fill-rule="evenodd" d="m568.91077 251.70866c0.8713989 0 1.4750366 0.26771545 1.9422607 0.87138367c0.4041748 0.60105896 0.67193604 1.4042053 0.67193604 2.4776917c0 1.0708618 -0.26776123 1.8740234 -0.67193604 2.4776917c-0.46722412 0.6036682 -1.0708618 0.8713989 -1.9422607 0.8713989c-0.9370117 0 -1.6063232 -0.2677307 -2.0078735 -0.8713989c-0.46984863 -0.6036682 -0.67193604 -1.4068298 -0.67193604 -2.4776917c0 -0.5354309 0.068237305 -1.005249 0.1338501 -1.4068146c0.1338501 -0.4015808 0.33599854 -0.8031616 0.53808594 -1.0708771c0.19946289 -0.27033997 0.4671631 -0.46981812 0.8031616 -0.6719055c0.333313 -0.13386536 0.7374878 -0.19947815 1.2047119 -0.19947815zm0 -1.2073517c-0.6693115 0 -1.2729492 0.068237305 -1.8084106 0.26771545c-0.5354004 0.27033997 -0.9370117 0.5380554 -1.338562 0.93963623c-0.33599854 0.40156555 -0.67193604 0.87138367 -0.8713989 1.4724426c-0.2020874 0.5354309 -0.2677002 1.2073517 -0.2677002 1.8766327c0 0.73753357 0.06561279 1.3385925 0.2677002 1.8740234c0.19946289 0.6036682 0.5354004 1.0734863 0.8713989 1.4750671c0.4015503 0.4015808 0.8031616 0.669281 1.338562 0.9370117c0.5354614 0.2020874 1.1390991 0.2677002 1.8084106 0.2677002c0.60369873 0 1.2073364 -0.06561279 1.7427979 -0.2677002c0.5354004 -0.2677307 0.9370117 -0.5354309 1.338562 -0.9370117c0.3359375 -0.4015808 0.60369873 -0.8713989 0.80578613 -1.4750671c0.19946289 -0.5354309 0.333313 -1.1364899 0.333313 -1.8740234c0 -0.669281 -0.1338501 -1.3412018 -0.333313 -1.8766327c-0.2020874 -0.60105896 -0.46984863 -1.0708771 -0.80578613 -1.4724426c-0.4015503 -0.4015808 -0.8031616 -0.66929626 -1.338562 -0.93963623c-0.5354614 -0.19947815 -1.1390991 -0.26771545 -1.7427979 -0.26771545z" fill="#58595b" />
      <path id="path33" fill-rule="evenodd" d="m579.69556 251.70866c0.3359375 0 0.671875 0.06561279 0.93963623 0.19947815c0.2677002 0.1338501 0.5354004 0.33595276 0.7348633 0.6036682c0.20214844 0.26771545 0.33599854 0.6036682 0.40423584 1.005249c0.1338501 0.4015808 0.19946289 0.9370117 0.19946289 1.4724426c0 1.1390991 -0.2677002 1.9422607 -0.6693115 2.545929c-0.4697876 0.6036682 -1.0708618 0.8713989 -1.9422607 0.8713989c-0.4015503 0 -0.8031006 -0.068237305 -1.1390991 -0.20211792c-0.3359375 -0.19946289 -0.6692505 -0.4671936 -0.9370117 -0.8031311l0 -4.3543396c0.33337402 -0.40156555 0.6693115 -0.73753357 1.0708618 -1.005249c0.40161133 -0.19947815 0.8031616 -0.33332825 1.338623 -0.33332825zm0.4697876 -1.2729645c-0.6036377 0 -1.1390991 0.1338501 -1.6745605 0.4671936c-0.4697876 0.27033997 -0.9369507 0.6036682 -1.2729492 1.0734863l-0.1338501 -1.0734863c-0.06561279 -0.19947815 -0.2020874 -0.26771545 -0.4015503 -0.26771545l-0.9370117 0l0 11.923874l1.5406494 0l0 -3.9501343c0.26776123 0.3333435 0.6693115 0.6010437 1.0026245 0.7349243c0.40423584 0.2020874 0.8713989 0.2677002 1.4068604 0.2677002c0.6036377 0 1.1390991 -0.06561279 1.6088867 -0.333313c0.5354614 -0.20211792 0.9370117 -0.5354614 1.2730103 -0.93963623c0.333313 -0.4671936 0.5354004 -0.9370117 0.7374878 -1.4724426c0.19952393 -0.6036682 0.26776123 -1.2047272 0.26776123 -1.876648c0 -0.73490906 -0.068237305 -1.4068298 -0.26776123 -1.9422607c-0.1338501 -0.6036682 -0.3359375 -1.0708618 -0.671875 -1.4068146c-0.26776123 -0.4015808 -0.6010742 -0.66929626 -1.0708618 -0.8713989c-0.40161133 -0.19947815 -0.8713989 -0.33332825 -1.4068604 -0.33332825z" fill="#58595b" />
      <path id="path35" fill-rule="evenodd" d="m597.04724 246.75066c-0.8713989 0 -1.7427979 0.20210266 -2.4802856 0.46981812c-0.7349243 0.33332825 -1.4068604 0.80314636 -1.9422607 1.3385773c-0.5354614 0.6036835 -1.005249 1.2729645 -1.2730103 2.076126c-0.333313 0.7375183 -0.4671631 1.6089172 -0.4671631 2.6141663c0 0.9370117 0.1338501 1.8083954 0.4671631 2.6115417c0.26776123 0.73753357 0.67193604 1.4750824 1.2073975 2.0105133c0.5354004 0.5354309 1.1390991 1.005249 1.8739624 1.338562c0.7375488 0.2677307 1.5407104 0.46981812 2.4803467 0.46981812c1.005249 0 1.9422607 -0.2020874 2.6798096 -0.5354309c0.7348633 -0.3359375 1.338562 -0.8057556 1.8739624 -1.4068298l-0.7374878 -0.7375183c-0.06561279 -0.068237305 -0.1338501 -0.068237305 -0.19946289 -0.068237305c-0.13391113 0 -0.20214844 0 -0.33599854 0.13647461c-0.19946289 0.19949341 -0.4015503 0.3333435 -0.6010132 0.4671936c-0.27038574 0.2020874 -0.46984863 0.2677307 -0.7375488 0.4015808c-0.2677002 0.068237305 -0.5354614 0.1338501 -0.8713989 0.2020874c-0.2677002 0 -0.60369873 0.06561279 -1.005249 0.06561279c-0.6010742 0 -1.1390991 -0.1338501 -1.6745605 -0.333313c-0.5354004 -0.2677307 -1.005249 -0.5354309 -1.4067993 -1.005249c-0.40161133 -0.4015808 -0.6693115 -0.9370117 -0.9370117 -1.5406952c-0.2020874 -0.6036682 -0.3359375 -1.3412018 -0.3359375 -2.0761108c0 -0.8057709 0.1338501 -1.4750671 0.3359375 -2.0761108c0.19946289 -0.6719208 0.5354004 -1.1391144 0.9370117 -1.6089325c0.3359375 -0.40156555 0.8031616 -0.73753357 1.3411865 -0.93699646c0.5354614 -0.2677307 1.1390991 -0.4015808 1.8084106 -0.4015808c0.5354614 0 1.005249 0.06561279 1.338562 0.19947815c0.40161133 0.1338501 0.7375488 0.26771545 0.9370117 0.40156555c0.27038574 0.13386536 0.46984863 0.26771545 0.60369873 0.33596802c0.1338501 0.1338501 0.2677002 0.19946289 0.4015503 0.19946289c0.068237305 0 0.1338501 0 0.20214844 -0.06561279c0.06561279 0 0.1338501 -0.068237305 0.1338501 -0.1338501l0.6036377 -0.8031616c-0.5380249 -0.46980286 -1.1390991 -0.87138367 -1.8084106 -1.1390991c-0.7374878 -0.26771545 -1.4750366 -0.46981812 -2.4120483 -0.46981812z" fill="#58595b" />
      <path id="path37" fill-rule="evenodd" d="m603.7454 246.55118l0 12.994751l1.5406494 0l0 -12.994751z" fill="#58595b" />
      <path id="path39" fill-rule="evenodd" d="m608.36743 250.63518l0 5.627304c0 0.5354309 0.068237305 1.005249 0.13391113 1.4067993c0.1338501 0.4015808 0.3359375 0.8031616 0.6036377 1.0734863c0.2677002 0.2677307 0.5354614 0.5354614 0.9370117 0.6693115c0.3359375 0.1338501 0.8031616 0.2677002 1.2729492 0.2677002c0.60369873 0 1.204773 -0.1338501 1.6745605 -0.4015503c0.4697876 -0.2677307 0.8713989 -0.60369873 1.2729492 -1.0735168l0.1338501 1.005249c0.068237305 0.20211792 0.20214844 0.33596802 0.40161133 0.33596802l0.93963623 0l0 -8.910751l-1.543335 0l0 6.56691c-0.333313 0.3333435 -0.7349243 0.6693115 -1.1364746 0.8687744c-0.4041748 0.20211792 -0.80578613 0.33596802 -1.2729492 0.33596802c-0.67193604 0 -1.1390991 -0.20211792 -1.4068604 -0.5354309c-0.3359375 -0.4015808 -0.4697876 -0.93963623 -0.4697876 -1.6089172l0 -5.627304z" fill="#58595b" />
      <path id="path41" fill-rule="evenodd" d="m621.56433 250.50131c-0.46984863 0 -0.9370117 0.068237305 -1.338623 0.20210266c-0.3359375 0.1338501 -0.671875 0.33595276 -0.93963623 0.5354309c-0.2677002 0.26771545 -0.5354004 0.5354309 -0.6692505 0.80314636c-0.13391113 0.33596802 -0.20214844 0.6719208 -0.20214844 1.005249c0 0.4015808 0.068237305 0.73753357 0.20214844 1.005249c0.1338501 0.26771545 0.3359375 0.46981812 0.5354004 0.66929626c0.2020874 0.1338501 0.46984863 0.33595276 0.7375488 0.40156555c0.2677002 0.13386536 0.5354004 0.2677307 0.8713989 0.33596802c0.2677002 0.1338501 0.5354004 0.20210266 0.8687744 0.26771545c0.2703247 0.068237305 0.4697876 0.20210266 0.7374878 0.33595276c0.20214844 0.06561279 0.40161133 0.19949341 0.46984863 0.4015808c0.1338501 0.1338501 0.19946289 0.3333435 0.19946289 0.6036682c0 0.19949341 0 0.4015808 -0.06561279 0.5354309c-0.068237305 0.19949341 -0.2020874 0.3333435 -0.3359375 0.4671936c-0.19952393 0.1338501 -0.33337402 0.2677307 -0.6010742 0.33596802c-0.2020874 0.06561279 -0.4697876 0.1338501 -0.80578613 0.1338501c-0.333313 0 -0.6692505 -0.068237305 -0.8687744 -0.1338501c-0.2703247 -0.068237305 -0.4697876 -0.20211792 -0.6036377 -0.2677307c-0.2020874 -0.1338501 -0.33599854 -0.2020874 -0.46984863 -0.2677002c-0.06561279 -0.068237305 -0.19946289 -0.13388062 -0.333313 -0.13388062c-0.068237305 0 -0.1338501 0 -0.2020874 0.06564331c-0.06561279 0.068237305 -0.1338501 0.068237305 -0.2020874 0.2020874l-0.33337402 0.6036682c0.33337402 0.2677307 0.7375488 0.5354309 1.2729492 0.7349243c0.46722412 0.2020874 1.0709229 0.3359375 1.6745605 0.3359375c0.5354614 0 1.005249 -0.068237305 1.4724731 -0.2677002c0.4015503 -0.1338501 0.7374878 -0.33596802 1.005249 -0.6036682c0.3359375 -0.19949341 0.5354004 -0.5354309 0.6692505 -0.8713989c0.1338501 -0.3333435 0.20214844 -0.7349243 0.20214844 -1.1390991c0 -0.3333435 -0.06829834 -0.6693115 -0.20214844 -0.937027c-0.1338501 -0.26771545 -0.2677002 -0.46980286 -0.4671631 -0.6036682c-0.2677002 -0.19947815 -0.46984863 -0.33332825 -0.7375488 -0.4671936c-0.3359375 -0.1338501 -0.6036377 -0.20210266 -0.8713989 -0.33595276c-0.2677002 -0.06561279 -0.6036377 -0.19947815 -0.8713989 -0.26771545c-0.2677002 -0.06562805 -0.5354004 -0.20210266 -0.7348633 -0.26771545c-0.20214844 -0.13386536 -0.40161133 -0.26771545 -0.53808594 -0.4015808c-0.1338501 -0.1338501 -0.19946289 -0.33595276 -0.19946289 -0.6036682c0 -0.13386536 0.06561279 -0.3333435 0.1338501 -0.46981812c0.06561279 -0.19947815 0.2020874 -0.3333435 0.3359375 -0.4015808c0.19952393 -0.1338501 0.33337402 -0.26771545 0.5354614 -0.33332825c0.2677002 -0.068237305 0.4671631 -0.068237305 0.7349243 -0.068237305c0.3359375 0 0.6036377 0 0.8057251 0.068237305c0.19952393 0.06561279 0.40161133 0.19947815 0.5354614 0.26771545c0.2020874 0.06561279 0.3359375 0.1338501 0.4697876 0.19947815c0.06567383 0.068237305 0.19952393 0.068237305 0.26776123 0.068237305c0.1338501 0 0.2677002 -0.068237305 0.333313 -0.13386536l0.3359375 -0.6036682c-0.3359375 -0.33332825 -0.7374878 -0.6036682 -1.2047119 -0.73753357c-0.4697876 -0.19947815 -1.005249 -0.26771545 -1.6088867 -0.26771545z" fill="#58595b" />
      <path id="path43" fill-rule="evenodd" d="m628.3963 247.68767c-0.1338501 0 -0.19946289 0.068237305 -0.2677002 0.1338501c-0.06561279 0.06825256 -0.06561279 0.13386536 -0.06561279 0.20210266l-0.4015503 2.745407l-1.4750977 0.20210266l0 0.6036682c0 0.13386536 0.068237305 0.19947815 0.1338501 0.26771545c0.068237305 0.06562805 0.1338501 0.06562805 0.20214844 0.06562805l1.0708618 0l0 5.4934387c0 0.7375183 0.2020874 1.2729492 0.6036377 1.67453c0.40161133 0.4015808 0.9370117 0.6036682 1.6063232 0.6036682c0.4015503 0 0.80578613 -0.068237305 1.2073364 -0.2677002c0.333313 -0.1338501 0.6693115 -0.33596802 0.9370117 -0.5354309l-0.46984863 -0.80578613c-0.06561279 -0.06561279 -0.1338501 -0.1338501 -0.19946289 -0.1338501c-0.068237305 0 -0.068237305 0.068237305 -0.1338501 0.068237305c-0.068237305 0.06561279 -0.1338501 0.1338501 -0.2677002 0.1338501c-0.068237305 0.06561279 -0.1338501 0.13388062 -0.2677002 0.19949341l-0.46984863 0c-0.2677002 0 -0.4697876 -0.06561279 -0.6693115 -0.2677307c-0.2020874 -0.1338501 -0.2677002 -0.4015808 -0.2677002 -0.8031311l0 -5.3595886l2.543335 0l0 -1.1391144l-2.543335 0l0 -3.0813599z" fill="#58595b" />
      <path id="path45" fill-rule="evenodd" d="m637.64044 251.64043c0.3359375 0 0.671875 0.068237305 0.93963623 0.1338501c0.2677002 0.13386536 0.5354004 0.33595276 0.7348633 0.5354309c0.20214844 0.20210266 0.33599854 0.46981812 0.46984863 0.8057709c0.068237305 0.2677307 0.1338501 0.60105896 0.1338501 1.005249l-4.8897705 0c0.1338501 -0.8057709 0.4015503 -1.4068146 0.8031616 -1.8110199c0.4697876 -0.4671936 1.0734863 -0.669281 1.8084106 -0.669281zm-0.06561279 -1.1391144c-0.60369873 0 -1.2073975 0.068237305 -1.7427979 0.33595276c-0.46722412 0.20210266 -0.9370117 0.5354309 -1.2729492 0.8713989c-0.33337402 0.40156555 -0.6693115 0.87138367 -0.8031616 1.4068146c-0.2020874 0.53544617 -0.33599854 1.1391144 -0.33599854 1.7401581c0 0.80578613 0.13391113 1.4750824 0.33599854 2.076126c0.2020874 0.6036682 0.5354004 1.0734863 0.8713989 1.4750671c0.4015503 0.4015808 0.8713379 0.7375183 1.338562 0.9370117c0.5354614 0.2020874 1.1390991 0.2677002 1.7427979 0.2677002c0.3359375 0 0.6036377 0 0.9370117 -0.06561279c0.3359375 -0.068237305 0.6692505 -0.1338501 1.005249 -0.2677002c0.2677002 -0.06826782 0.5354004 -0.20211792 0.8031006 -0.4015808c0.26776123 -0.20211792 0.5354614 -0.40420532 0.7375488 -0.6036682l-0.4697876 -0.60369873c-0.06561279 -0.06561279 -0.1338501 -0.1338501 -0.26776123 -0.1338501c-0.1338501 0 -0.19946289 0.068237305 -0.4015503 0.1338501c-0.1338501 0.13388062 -0.2677002 0.20211792 -0.4671631 0.33596802c-0.20214844 0.06561279 -0.46984863 0.19946289 -0.7375488 0.2677307c-0.2677002 0.06561279 -0.60369873 0.1338501 -1.005249 0.1338501c-0.46984863 0 -0.8031616 -0.068237305 -1.1390991 -0.20211792c-0.33599854 -0.1338501 -0.6693115 -0.333313 -0.9370117 -0.6010437c-0.2020874 -0.3359375 -0.40161133 -0.6719055 -0.5354614 -1.0734863c-0.1338501 -0.4015808 -0.2020874 -0.86875916 -0.2703247 -1.4724426l5.963257 0c0.1338501 0 0.2677002 0 0.3359375 -0.1338501c0.06561279 -0.06825256 0.06561279 -0.20210266 0.06561279 -0.46981812c0 -0.6036835 -0.06561279 -1.2047272 -0.2677002 -1.6745453c-0.2020874 -0.5354309 -0.4697876 -0.9370117 -0.8031616 -1.2729645c-0.3359375 -0.33332825 -0.7374878 -0.6036682 -1.1390991 -0.73753357c-0.4697876 -0.19947815 -1.005249 -0.26771545 -1.5406494 -0.26771545z" fill="#58595b" />
      <path id="path47" fill-rule="evenodd" d="m647.8898 250.4357c-0.6010742 0 -1.1390991 0.19947815 -1.5407104 0.5354309c-0.4015503 0.33595276 -0.7348633 0.80314636 -1.005249 1.4068298l-0.1338501 -1.3385925c0 -0.13647461 -0.06561279 -0.27033997 -0.1338501 -0.33595276c-0.06561279 -0.068237305 -0.1338501 -0.068237305 -0.333313 -0.068237305l-0.8713989 0l0 8.910751l1.5406494 0l0 -5.627289c0.13391113 -0.33596802 0.26776123 -0.6036835 0.40161133 -0.8713989c0.1338501 -0.19947815 0.2677002 -0.40156555 0.4697876 -0.5354309c0.1338501 -0.20210266 0.33337402 -0.33595276 0.6010742 -0.4015808c0.2020874 -0.068237305 0.4697876 -0.1338501 0.7375488 -0.1338501c0.2020874 0 0.3359375 0.06561279 0.5354004 0.06561279c0.1338501 0.068237305 0.2677002 0.068237305 0.3359375 0.068237305c0.13391113 0 0.26776123 -0.068237305 0.26776123 -0.2020874l0.1338501 -1.2047272c-0.1338501 -0.068237305 -0.333313 -0.13386536 -0.46984863 -0.20210266c-0.19946289 0 -0.333313 -0.06561279 -0.5354004 -0.06561279z" fill="#58595b" />
      <path id="path49" fill-rule="evenodd" d="m660.01575 248.29134c0.9370117 0 1.6063232 0.13386536 2.0761108 0.46981812c0.4015503 0.33332825 0.6693115 0.9370117 0.6693115 1.6745453c0 0.26771545 -0.06561279 0.6036682 -0.19946289 0.87138367c-0.06829834 0.26771545 -0.26776123 0.4671936 -0.46984863 0.66929626c-0.2677002 0.19947815 -0.5354004 0.33332825 -0.9370117 0.4015808c-0.3359375 0.1338501 -0.7375488 0.2020874 -1.2073364 0.2020874l-2.2755737 0l0 -4.2887115zm0.4015503 5.4934387c0.9370117 0 1.6089478 0.19947815 2.0761108 0.5354309c0.46984863 0.4015808 0.6693115 0.9370117 0.6693115 1.5406799c0 0.33595276 0 0.66929626 -0.1338501 0.937027c-0.1338501 0.2703247 -0.2677002 0.5380554 -0.4671631 0.7375183c-0.26776123 0.2020874 -0.5354614 0.33596802 -0.8713989 0.46981812c-0.40161133 0.1338501 -0.8031616 0.1338501 -1.2730103 0.1338501l-2.7453613 0l0 -4.3543243zm-4.419922 -6.832016l0 12.59317l4.419922 0c0.7375488 0 1.338623 -0.1338501 1.876648 -0.2677002c0.6010742 -0.20211792 1.0026245 -0.46981812 1.4068604 -0.7375488c0.4015503 -0.33596802 0.6692505 -0.7375183 0.8687744 -1.1390991c0.2020874 -0.46981812 0.2703247 -0.9370117 0.2703247 -1.4724426c0 -0.80578613 -0.2020874 -1.4068298 -0.67193604 -1.876648c-0.4671631 -0.5354309 -1.1390991 -0.87138367 -2.0761108 -1.005249c0.4015503 -0.1338501 0.7375488 -0.26771545 1.005249 -0.4671936c0.3359375 -0.2020874 0.5354614 -0.46981812 0.7375488 -0.6719055c0.19946289 -0.26771545 0.333313 -0.53544617 0.4671631 -0.8031616c0.068237305 -0.26771545 0.1338501 -0.6036682 0.1338501 -0.87138367c0 -0.5354309 -0.06561279 -1.005249 -0.2677002 -1.4068298c-0.1338501 -0.40156555 -0.4015503 -0.73490906 -0.8031616 -1.005249c-0.3359375 -0.33332825 -0.8031006 -0.5354309 -1.338562 -0.669281c-0.60369873 -0.13386536 -1.2729492 -0.19947815 -2.010498 -0.19947815z" fill="#58595b" />
      <path id="path51" fill-rule="evenodd" d="m671.2021 251.70866c0.8713989 0 1.5407104 0.26771545 2.010498 0.87138367c0.40161133 0.60105896 0.60369873 1.4042053 0.60369873 2.4776917c0 1.0708618 -0.2020874 1.8740234 -0.60369873 2.4776917c-0.4697876 0.6036682 -1.1390991 0.8713989 -2.010498 0.8713989c-0.8713989 0 -1.5406494 -0.2677307 -1.9422607 -0.8713989c-0.4697876 -0.6036682 -0.6692505 -1.4068298 -0.6692505 -2.4776917c0 -0.5354309 0.06561279 -1.005249 0.1338501 -1.4068146c0.1338501 -0.4015808 0.2677002 -0.8031616 0.5354004 -1.0708771c0.2020874 -0.27033997 0.46984863 -0.46981812 0.8031616 -0.6719055c0.3359375 -0.13386536 0.7375488 -0.19947815 1.1390991 -0.19947815zm0 -1.2073517c-0.6692505 0 -1.2047119 0.068237305 -1.7401733 0.26771545c-0.5380249 0.27033997 -1.005249 0.5380554 -1.3411865 0.93963623c-0.4015503 0.40156555 -0.6693115 0.87138367 -0.8713989 1.4724426c-0.19946289 0.5354309 -0.2677002 1.2073517 -0.2677002 1.8766327c0 0.73753357 0.068237305 1.3385925 0.2677002 1.8740234c0.2020874 0.6036682 0.46984863 1.0734863 0.8713989 1.4750671c0.3359375 0.4015808 0.8031616 0.669281 1.3411865 0.9370117c0.5354614 0.2020874 1.0709229 0.2677002 1.7401733 0.2677002c0.6693115 0 1.2729492 -0.06561279 1.8084106 -0.2677002c0.4697876 -0.2677307 0.93963623 -0.5354309 1.3411865 -0.9370117c0.33337402 -0.4015808 0.6010742 -0.8713989 0.8031616 -1.4750671c0.2020874 -0.5354309 0.3359375 -1.1364899 0.3359375 -1.8740234c0 -0.669281 -0.1338501 -1.3412018 -0.3359375 -1.8766327c-0.2020874 -0.60105896 -0.4697876 -1.0708771 -0.8031616 -1.4724426c-0.4015503 -0.4015808 -0.8713989 -0.66929626 -1.3411865 -0.93963623c-0.5354614 -0.19947815 -1.1390991 -0.26771545 -1.8084106 -0.26771545z" fill="#58595b" />
      <path id="path53" fill-rule="evenodd" d="m681.7874 251.70866c0.8687744 0 1.5406494 0.26771545 2.0078735 0.87138367c0.4041748 0.60105896 0.6036377 1.4042053 0.6036377 2.4776917c0 1.0708618 -0.19946289 1.8740234 -0.6036377 2.4776917c-0.46722412 0.6036682 -1.1390991 0.8713989 -2.0078735 0.8713989c-0.8713989 0 -1.5407104 -0.2677307 -1.9422607 -0.8713989c-0.46984863 -0.6036682 -0.67193604 -1.4068298 -0.67193604 -2.4776917c0 -0.5354309 0.068237305 -1.005249 0.1338501 -1.4068146c0.1338501 -0.4015808 0.26776123 -0.8031616 0.53808594 -1.0708771c0.19946289 -0.27033997 0.4671631 -0.46981812 0.8031616 -0.6719055c0.333313 -0.13386536 0.7374878 -0.19947815 1.1390991 -0.19947815zm0 -1.2073517c-0.60369873 0 -1.2073364 0.068237305 -1.7427979 0.26771545c-0.5354004 0.27033997 -1.005249 0.5380554 -1.338562 0.93963623c-0.40161133 0.40156555 -0.67193604 0.87138367 -0.8713989 1.4724426c-0.2020874 0.5354309 -0.2677002 1.2073517 -0.2677002 1.8766327c0 0.73753357 0.06561279 1.3385925 0.2677002 1.8740234c0.19946289 0.6036682 0.4697876 1.0734863 0.8713989 1.4750671c0.333313 0.4015808 0.8031616 0.669281 1.338562 0.9370117c0.5354614 0.2020874 1.1390991 0.2677002 1.7427979 0.2677002c0.6692505 0 1.2729492 -0.06561279 1.8084106 -0.2677002c0.4671631 -0.2677307 0.9370117 -0.5354309 1.338562 -0.9370117c0.3359375 -0.4015808 0.60369873 -0.8713989 0.80578613 -1.4750671c0.19946289 -0.5354309 0.333313 -1.1364899 0.333313 -1.8740234c0 -0.669281 -0.1338501 -1.3412018 -0.333313 -1.8766327c-0.2020874 -0.60105896 -0.46984863 -1.0708771 -0.80578613 -1.4724426c-0.4015503 -0.4015808 -0.8713989 -0.66929626 -1.338562 -0.93963623c-0.5354614 -0.19947815 -1.1391602 -0.26771545 -1.8084106 -0.26771545z" fill="#58595b" />
      <path id="path55" fill-rule="evenodd" d="m689.82416 247.68767c-0.1338501 0 -0.19946289 0.068237305 -0.2677002 0.1338501c-0.06567383 0.06825256 -0.06567383 0.13386536 -0.13391113 0.20210266l-0.333313 2.745407l-1.4750366 0.20210266l0 0.6036682c0 0.13386536 0.068237305 0.19947815 0.1338501 0.26771545c0 0.06562805 0.1338501 0.06562805 0.2020874 0.06562805l1.0708618 0l0 5.4934387c0 0.7375183 0.2020874 1.2729492 0.60369873 1.67453c0.333313 0.4015808 0.8713379 0.6036682 1.6062622 0.6036682c0.40423584 0 0.80578613 -0.068237305 1.1390991 -0.2677002c0.40161133 -0.1338501 0.7375488 -0.33596802 1.005249 -0.5354309l-0.4697876 -0.80578613c-0.06561279 -0.06561279 -0.1338501 -0.1338501 -0.19946289 -0.1338501c-0.068237305 0 -0.1338501 0.068237305 -0.2020874 0.068237305c-0.06567383 0.06561279 -0.13391113 0.1338501 -0.19952393 0.1338501c-0.068237305 0.06561279 -0.2020874 0.13388062 -0.3359375 0.19949341l-0.4015503 0c-0.26776123 0 -0.5354614 -0.06561279 -0.6693115 -0.2677307c-0.2020874 -0.1338501 -0.3359375 -0.4015808 -0.3359375 -0.8031311l0 -5.3595886l2.6141357 0l0 -1.1391144l-2.6141357 0l0 -3.0813599z" fill="#58595b" />
      <path id="path57" fill-rule="evenodd" d="m698.1312 250.50131c-0.4671631 0 -0.9370117 0.068237305 -1.338562 0.20210266c-0.40161133 0.1338501 -0.7375488 0.33595276 -1.005249 0.5354309c-0.2677002 0.26771545 -0.46984863 0.5354309 -0.60369873 0.80314636c-0.1338501 0.33596802 -0.19946289 0.6719208 -0.19946289 1.005249c0 0.4015808 0.06561279 0.73753357 0.19946289 1.005249c0.1338501 0.26771545 0.33599854 0.46981812 0.5354614 0.66929626c0.2020874 0.1338501 0.4697876 0.33595276 0.7374878 0.40156555c0.26776123 0.13386536 0.5354614 0.2677307 0.8713989 0.33596802c0.26776123 0.1338501 0.5354614 0.20210266 0.8031616 0.26771545c0.2677002 0.068237305 0.5354614 0.20210266 0.7375488 0.33595276c0.2677002 0.06561279 0.4015503 0.19949341 0.5354004 0.4015808c0.13391113 0.1338501 0.20214844 0.3333435 0.20214844 0.6036682c0 0.19949341 0 0.4015808 -0.068237305 0.5354309c-0.13391113 0.19949341 -0.19952393 0.3333435 -0.33337402 0.4671936c-0.2020874 0.1338501 -0.4041748 0.2677307 -0.6036377 0.33596802c-0.20214844 0.06561279 -0.46984863 0.1338501 -0.8031616 0.1338501c-0.33599854 0 -0.67193604 -0.068237305 -0.8713989 -0.1338501c-0.2677002 -0.068237305 -0.46984863 -0.20211792 -0.60369873 -0.2677307c-0.19946289 -0.1338501 -0.3359375 -0.2020874 -0.4697876 -0.2677002c-0.1338501 -0.068237305 -0.19946289 -0.13388062 -0.333313 -0.13388062c-0.06829834 0 -0.20214844 0 -0.26776123 0.06564331c0 0.068237305 -0.068237305 0.068237305 -0.1338501 0.2020874l-0.4015503 0.6036682c0.4015503 0.2677307 0.8031616 0.5354309 1.338562 0.7349243c0.46984863 0.2020874 1.0708618 0.3359375 1.6745605 0.3359375c0.5354004 0 1.005249 -0.068237305 1.4067993 -0.2677002c0.46984863 -0.1338501 0.8031616 -0.33596802 1.0708618 -0.6036682c0.2677002 -0.19949341 0.53808594 -0.5354309 0.67193604 -0.8713989c0.1338501 -0.3333435 0.19946289 -0.7349243 0.19946289 -1.1390991c0 -0.3333435 -0.06561279 -0.6693115 -0.19946289 -0.937027c-0.1338501 -0.26771545 -0.2677002 -0.46980286 -0.53808594 -0.6036682c-0.19946289 -0.19947815 -0.4671631 -0.33332825 -0.7348633 -0.4671936c-0.26776123 -0.1338501 -0.5354614 -0.20210266 -0.80578613 -0.33595276c-0.33337402 -0.06561279 -0.6010742 -0.19947815 -0.8687744 -0.26771545c-0.2677002 -0.06562805 -0.53808594 -0.20210266 -0.7375488 -0.26771545c-0.2020874 -0.13386536 -0.4015503 -0.26771545 -0.5354004 -0.4015808c-0.1338501 -0.1338501 -0.20214844 -0.33595276 -0.20214844 -0.6036682c0 -0.13386536 0.06829834 -0.3333435 0.13391113 -0.46981812c0.068237305 -0.19947815 0.2020874 -0.3333435 0.3359375 -0.4015808c0.1338501 -0.1338501 0.333313 -0.26771545 0.5354004 -0.33332825c0.20214844 -0.068237305 0.46984863 -0.068237305 0.7375488 -0.068237305c0.2677002 0 0.5354614 0 0.8031616 0.068237305c0.2020874 0.06561279 0.4015503 0.19947815 0.5354614 0.26771545c0.2020874 0.06561279 0.3359375 0.1338501 0.4015503 0.19947815c0.1338501 0.068237305 0.2020874 0.068237305 0.3359375 0.068237305c0.1338501 0 0.26776123 -0.068237305 0.33599854 -0.13386536l0.333313 -0.6036682c-0.333313 -0.33332825 -0.7375488 -0.6036682 -1.2047119 -0.73753357c-0.46984863 -0.19947815 -1.005249 -0.26771545 -1.6089478 -0.26771545z" fill="#58595b" />
      <path id="path59" fill-rule="evenodd" d="m704.96326 247.68767c-0.1338501 0 -0.19946289 0.068237305 -0.2677002 0.1338501c-0.06561279 0.06825256 -0.06561279 0.13386536 -0.1338501 0.20210266l-0.33337402 2.745407l-1.4750366 0.20210266l0 0.6036682c0 0.13386536 0.068237305 0.19947815 0.1338501 0.26771545c0.068237305 0.06562805 0.1338501 0.06562805 0.2020874 0.06562805l1.0708618 0l0 5.4934387c0 0.7375183 0.2020874 1.2729492 0.60369873 1.67453c0.3359375 0.4015808 0.8713989 0.6036682 1.6062622 0.6036682c0.40423584 0 0.80578613 -0.068237305 1.1391602 -0.2677002c0.4015503 -0.1338501 0.7374878 -0.33596802 1.005249 -0.5354309l-0.46722412 -0.80578613c-0.068237305 -0.06561279 -0.13647461 -0.1338501 -0.2020874 -0.1338501c-0.068237305 0 -0.1338501 0.068237305 -0.1338501 0.068237305c-0.068237305 0.06561279 -0.2020874 0.1338501 -0.26776123 0.1338501c-0.068237305 0.06561279 -0.2020874 0.13388062 -0.2677002 0.19949341l-0.4697876 0c-0.26776123 0 -0.5354614 -0.06561279 -0.6693115 -0.2677307c-0.2020874 -0.1338501 -0.2677002 -0.4015808 -0.2677002 -0.8031311l0 -5.3595886l2.5458984 0l0 -1.1391144l-2.5458984 0l0 -3.0813599z" fill="#58595b" />
      <path id="path61" fill-rule="evenodd" d="m714.54333 250.4357c-0.5354614 0 -1.0709229 0.19947815 -1.4724731 0.5354309c-0.4015503 0.33595276 -0.7375488 0.80314636 -1.005249 1.4068298l-0.1338501 -1.3385925c0 -0.13647461 -0.068237305 -0.27033997 -0.1338501 -0.33595276c-0.068237305 -0.068237305 -0.2020874 -0.068237305 -0.33599854 -0.068237305l-0.9369507 0l0 8.910751l1.6062622 0l0 -5.627289c0.1338501 -0.33596802 0.2020874 -0.6036835 0.3359375 -0.8713989c0.13391113 -0.19947815 0.33599854 -0.40156555 0.46984863 -0.5354309c0.19946289 -0.20210266 0.4015503 -0.33595276 0.6010742 -0.4015808c0.2020874 -0.068237305 0.4697876 -0.1338501 0.7374878 -0.1338501c0.2020874 0 0.40161133 0.06561279 0.5354614 0.06561279c0.2020874 0.068237305 0.3359375 0.068237305 0.4015503 0.068237305c0.1338501 0 0.2020874 -0.068237305 0.2703247 -0.2020874l0.06567383 -1.2047272c-0.13391113 -0.068237305 -0.26776123 -0.13386536 -0.40161133 -0.20210266c-0.2020874 0 -0.4015503 -0.06561279 -0.6036377 -0.06561279z" fill="#58595b" />
      <path id="path63" fill-rule="evenodd" d="m722.2467 255.52756l0 1.8084106c-0.19946289 0.19946289 -0.333313 0.4015503 -0.5354004 0.5354309c-0.19946289 0.1338501 -0.40161133 0.2677002 -0.60369873 0.333313c-0.19946289 0.13388062 -0.4015503 0.20211792 -0.6010132 0.2677307c-0.26776123 0.068237305 -0.46984863 0.068237305 -0.80578613 0.068237305c-0.19946289 0 -0.40161133 0 -0.5354614 -0.068237305c-0.19946289 -0.06561279 -0.333313 -0.1338501 -0.4671631 -0.19946289c-0.1338501 -0.13388062 -0.26776123 -0.2677307 -0.33599854 -0.46981812c-0.068237305 -0.13388062 -0.1338501 -0.3333435 -0.1338501 -0.6010742c0 -0.2020874 0.1338501 -0.46981812 0.2677002 -0.6719055c0.13391113 -0.19946289 0.33599854 -0.3333435 0.6693115 -0.4671936c0.33599854 -0.20210266 0.7375488 -0.26771545 1.2729492 -0.40156555c0.46984863 -0.06825256 1.0735474 -0.13386536 1.8084106 -0.13386536zm-1.5406494 -5.091858c-0.7349243 0 -1.338623 0.1338501 -1.9422607 0.40156555c-0.5354614 0.20210266 -1.0708618 0.5354309 -1.5407104 1.005249l0.2677002 0.53544617c0.06829834 0.06561279 0.13391113 0.1338501 0.20214844 0.2020874c0.06561279 0.06562805 0.1338501 0.06562805 0.2677002 0.06562805c0.1338501 0 0.2677002 -0.06562805 0.4015503 -0.13386536c0.1338501 -0.068237305 0.26776123 -0.20210266 0.46984863 -0.33595276c0.19946289 -0.13386536 0.4015503 -0.19947815 0.6693115 -0.3333435c0.2677002 -0.068237305 0.6036377 -0.1338501 1.005249 -0.1338501c0.5354004 0 1.005249 0.19947815 1.2729492 0.5354309c0.333313 0.33595276 0.4671631 0.87138367 0.4671631 1.6062927l0 0.6719208c-1.005249 0 -1.8740234 0.13386536 -2.5458984 0.26771545c-0.7349243 0.13386536 -1.2703857 0.4015808 -1.7401733 0.60105896c-0.4015503 0.27033997 -0.7375488 0.5380554 -0.9370117 0.8713989c-0.2020874 0.3359375 -0.2703247 0.669281 -0.2703247 1.005249c0 0.4015503 0.068237305 0.8031311 0.2020874 1.0708618c0.1338501 0.2703247 0.3359375 0.5380554 0.5354004 0.7375183c0.20214844 0.20211792 0.46984863 0.33596802 0.8031616 0.46981812c0.27038574 0.06561279 0.60369873 0.1338501 0.93963623 0.1338501c0.40161133 0 0.6693115 -0.068237305 0.9370117 -0.1338501c0.2677002 -0.068237305 0.5354614 -0.1338501 0.8031616 -0.2677002c0.2677002 -0.06826782 0.4697876 -0.20211792 0.7375488 -0.4015808c0.2020874 -0.13388062 0.4015503 -0.33596802 0.6692505 -0.6036682l0.13391113 0.8713684c0.068237305 0.13388062 0.1338501 0.2677307 0.2020874 0.2677307c0.1338501 0.06561279 0.2020874 0.1338501 0.4015503 0.1338501l0.6693115 0l0 -5.6955414c0 -0.5354309 -0.06561279 -1.0026245 -0.19946289 -1.4068146c-0.13391113 -0.4015808 -0.33599854 -0.73490906 -0.60369873 -1.0708771c-0.2677002 -0.26771545 -0.60369873 -0.5354309 -1.005249 -0.669281c-0.333313 -0.20210266 -0.8031616 -0.26771545 -1.2729492 -0.26771545z" fill="#58595b" />
      <path id="path65" fill-rule="evenodd" d="m730.7559 251.70866c0.333313 0 0.6692505 0.06561279 0.9370117 0.19947815c0.2677002 0.1338501 0.5354004 0.33595276 0.7374878 0.6036682c0.19952393 0.26771545 0.33337402 0.6036682 0.46722412 1.005249c0.068237305 0.4015808 0.1338501 0.9370117 0.1338501 1.4724426c0 1.1390991 -0.19946289 1.9422607 -0.6693115 2.545929c-0.4671631 0.6036682 -1.0708618 0.8713989 -1.9422607 0.8713989c-0.4015503 0 -0.8031006 -0.068237305 -1.1390991 -0.20211792c-0.333313 -0.19946289 -0.6692505 -0.4671936 -0.9370117 -0.8031311l0 -4.3543396c0.33337402 -0.40156555 0.6693115 -0.73753357 1.0708618 -1.005249c0.40161133 -0.19947815 0.8031616 -0.33332825 1.3412476 -0.33332825zm0.5354004 -1.2729645c-0.6692505 0 -1.2073364 0.1338501 -1.7427368 0.4671936c-0.46722412 0.27033997 -0.8713989 0.6036682 -1.2730103 1.0734863l-0.1338501 -1.0734863c-0.06561279 -0.19947815 -0.19946289 -0.26771545 -0.4015503 -0.26771545l-0.9370117 0l0 11.923874l1.5406494 0l0 -3.9501343c0.33337402 0.3333435 0.6693115 0.6010437 1.0708618 0.7349243c0.33599854 0.2020874 0.8031616 0.2677002 1.4068604 0.2677002c0.5354004 0 1.0734863 -0.06561279 1.6088867 -0.333313c0.46722412 -0.20211792 0.8713989 -0.5354614 1.204773 -0.93963623c0.3359375 -0.4671936 0.5354004 -0.9370117 0.7374878 -1.4724426c0.19952393 -0.6036682 0.26776123 -1.2047272 0.26776123 -1.876648c0 -0.73490906 -0.068237305 -1.4068298 -0.26776123 -1.9422607c-0.1338501 -0.6036682 -0.3359375 -1.0708618 -0.6692505 -1.4068146c-0.26776123 -0.4015808 -0.60369873 -0.66929626 -1.0734863 -0.8713989c-0.40161133 -0.19947815 -0.8687744 -0.33332825 -1.338623 -0.33332825z" fill="#58595b" />
      <path id="path67" fill-rule="evenodd" d="m741.2047 251.70866c0.40161133 0 0.6693115 0.06561279 1.005249 0.19947815c0.2677002 0.1338501 0.46984863 0.33595276 0.6693115 0.6036682c0.2020874 0.26771545 0.3359375 0.6036682 0.4697876 1.005249c0.06561279 0.4015808 0.1338501 0.9370117 0.1338501 1.4724426c0 1.1390991 -0.2020874 1.9422607 -0.6692505 2.545929c-0.40161133 0.6036682 -1.0734863 0.8713989 -1.876648 0.8713989c-0.46984863 0 -0.8031616 -0.068237305 -1.1390991 -0.20211792c-0.40161133 -0.19946289 -0.6693115 -0.4671936 -1.005249 -0.8031311l0 -4.3543396c0.3359375 -0.40156555 0.7375488 -0.73753357 1.0734863 -1.005249c0.4015503 -0.19947815 0.8713989 -0.33332825 1.338562 -0.33332825zm0.5354614 -1.2729645c-0.6693115 0 -1.2047119 0.1338501 -1.6745605 0.4671936c-0.5354004 0.27033997 -0.9370117 0.6036682 -1.338562 1.0734863l-0.1338501 -1.0734863c-0.068237305 -0.19947815 -0.20214844 -0.26771545 -0.40161133 -0.26771545l-0.93963623 0l0 11.923874l1.5407104 0l0 -3.9501343c0.3359375 0.3333435 0.671875 0.6010437 1.0734863 0.7349243c0.4015503 0.2020874 0.8713989 0.2677002 1.4067993 0.2677002c0.6010742 0 1.1390991 -0.06561279 1.6063232 -0.333313c0.4697876 -0.20211792 0.8713989 -0.5354614 1.2073364 -0.93963623c0.333313 -0.4671936 0.6010742 -0.9370117 0.7349243 -1.4724426c0.2020874 -0.6036682 0.2677002 -1.2047272 0.2677002 -1.876648c0 -0.73490906 -0.06561279 -1.4068298 -0.19946289 -1.9422607c-0.2020874 -0.6036682 -0.40161133 -1.0708618 -0.6693115 -1.4068146c-0.3359375 -0.4015808 -0.671875 -0.66929626 -1.0734863 -0.8713989c-0.4015503 -0.19947815 -0.8687744 -0.33332825 -1.4067993 -0.33332825z" fill="#58595b" />
      <path id="path69" fill-rule="evenodd" d="m751.3884 251.64043c0.40161133 0 0.6693115 0.068237305 1.0026245 0.1338501c0.27038574 0.13386536 0.46984863 0.33595276 0.67193604 0.5354309c0.19946289 0.20210266 0.333313 0.46981812 0.46722412 0.8057709c0.1338501 0.2677307 0.1338501 0.60105896 0.1338501 1.005249l-4.821533 0c0.06561279 -0.8057709 0.333313 -1.4068146 0.8031616 -1.8110199c0.4015503 -0.4671936 1.005249 -0.669281 1.7427368 -0.669281zm0 -1.1391144c-0.671875 0 -1.2729492 0.068237305 -1.7427368 0.33595276c-0.5354614 0.20210266 -0.9370117 0.5354309 -1.338623 0.8713989c-0.3359375 0.40156555 -0.6036377 0.87138367 -0.8057251 1.4068146c-0.19952393 0.53544617 -0.26776123 1.1391144 -0.26776123 1.7401581c0 0.80578613 0.068237305 1.4750824 0.26776123 2.076126c0.2677002 0.6036682 0.5354004 1.0734863 0.9395752 1.4750671c0.33337402 0.4015808 0.8031616 0.7375183 1.338623 0.9370117c0.4697876 0.2020874 1.0708618 0.2677002 1.6744995 0.2677002c0.33599854 0 0.6693115 0 1.005249 -0.06561279c0.33599854 -0.068237305 0.60369873 -0.1338501 0.9370117 -0.2677002c0.26776123 -0.06826782 0.60369873 -0.20211792 0.8713989 -0.4015808c0.26776123 -0.20211792 0.46984863 -0.40420532 0.6693115 -0.6036682l-0.4015503 -0.60369873c-0.06567383 -0.06561279 -0.19952393 -0.1338501 -0.33337402 -0.1338501c-0.068237305 0 -0.2020874 0.068237305 -0.3359375 0.1338501c-0.1338501 0.13388062 -0.3359375 0.20211792 -0.5354614 0.33596802c-0.2020874 0.06561279 -0.4697876 0.19946289 -0.7374878 0.2677307c-0.26776123 0.06561279 -0.60369873 0.1338501 -1.005249 0.1338501c-0.40161133 0 -0.8031616 -0.068237305 -1.1391602 -0.20211792c-0.333313 -0.1338501 -0.6010132 -0.333313 -0.8713379 -0.6010437c-0.26776123 -0.3359375 -0.46722412 -0.6719055 -0.6010742 -1.0734863c-0.1338501 -0.4015808 -0.2020874 -0.86875916 -0.2020874 -1.4724426l5.963257 0c0.1338501 0 0.19946289 0 0.2677002 -0.1338501c0.06561279 -0.06825256 0.06561279 -0.20210266 0.06561279 -0.46981812c0 -0.6036835 -0.06561279 -1.2047272 -0.2677002 -1.6745453c-0.19946289 -0.5354309 -0.46722412 -0.9370117 -0.8031616 -1.2729645c-0.2677002 -0.33332825 -0.6693115 -0.6036682 -1.1390991 -0.73753357c-0.46984863 -0.19947815 -0.9370117 -0.26771545 -1.4724731 -0.26771545z" fill="#58595b" />
      <path id="path71" fill-rule="evenodd" d="m761.6378 250.4357c-0.60369873 0 -1.0734863 0.19947815 -1.4750977 0.5354309c-0.4015503 0.33595276 -0.8031616 0.80314636 -1.0708618 1.4068298l-0.068237305 -1.3385925c-0.06561279 -0.13647461 -0.06561279 -0.27033997 -0.1338501 -0.33595276c-0.06561279 -0.068237305 -0.19946289 -0.068237305 -0.40161133 -0.068237305l-0.8713379 0l0 8.910751l1.6088867 0l0 -5.627289c0.06561279 -0.33596802 0.19946289 -0.6036835 0.33337402 -0.8713989c0.1338501 -0.19947815 0.3359375 -0.40156555 0.4697876 -0.5354309c0.2020874 -0.20210266 0.4015503 -0.33595276 0.60369873 -0.4015808c0.19946289 -0.068237305 0.4671631 -0.1338501 0.7348633 -0.1338501c0.20214844 0 0.40423584 0.06561279 0.53808594 0.06561279c0.1338501 0.068237305 0.2677002 0.068237305 0.333313 0.068237305c0.2020874 0 0.26776123 -0.068237305 0.26776123 -0.2020874l0.1338501 -1.2047272c-0.1338501 -0.068237305 -0.26776123 -0.13386536 -0.46722412 -0.20210266c-0.1338501 0 -0.3359375 -0.06561279 -0.5354004 -0.06561279z" fill="#58595b" />
   </g>
</svg>
