<?xml version="1.0" encoding="utf-8"?>
<!-- Generator: Adobe Illustrator 16.0.0, SVG Export Plug-In . SVG Version: 6.00 Build 0)  -->
<!DOCTYPE svg PUBLIC "-//W3C//DTD SVG 1.1//EN" "http://www.w3.org/Graphics/SVG/1.1/DTD/svg11.dtd">
<svg version="1.1" id="Layer_1" xmlns="http://www.w3.org/2000/svg" xmlns:xlink="http://www.w3.org/1999/xlink" x="0px" y="0px"
	 width="432.386px" height="309.5px" viewBox="0 0 432.386 309.5" enable-background="new 0 0 432.386 309.5" xml:space="preserve">
<g>
	<g>
		<g>
			<path fill="#47499F" d="M245.422,46.009l42.814,19.143c4.098,1.829,8.9-0.003,10.725-4.102l2.396-5.349
				c1.834-4.094-0.004-8.89-4.098-10.725L292,42.625l10.008-16.282c2.541-5.683-0.004-12.34-5.688-14.886L280.04,4.184
				c-5.682-2.543-12.346,0.008-14.879,5.687l-5.459,18.317l-5.26-2.352c-4.098-1.831-8.898,0.004-10.73,4.096l-2.389,5.352
				C239.495,39.375,241.329,44.174,245.422,46.009z"/>
		</g>
	</g>
</g>
<g>
	<g>
		<path fill="#565DBE" d="M219.805,134.633c-6.621,0-12.008,5.385-12.008,12.012c0,6.619,5.387,12.006,12.008,12.006
			s12.012-5.387,12.012-12.006C231.817,140.018,226.426,134.633,219.805,134.633z"/>
	</g>
	<g>
		<path fill="#565DBE" d="M398.512,137.899c-42.613-12.851-44.418,32.979-24.395,30.734c16.031-1.795,19.979,16.681,10.146,21.077
			c-14.703,6.561-27.805-15.815-41.266-42.777c-11.662-23.377-28.311-67.855-95.389-90.645
			C182.768,34.257,89.987,63.05,51.35,128.668c-3.07,5.219-5.793,10.625-8.207,16.166c-30.035,15.626-37.91,32.519-35.012,38.969
			c2.367,5.252,17.152-0.705,23.658-3.633c-12.381,55.188-3.436,110.183-3.436,110.183v2.702c0,6.723,5.451,12.176,12.178,12.176
			h21.65c6.723,0,12.172-5.453,12.172-12.176v-13.076h0.207c1.027-5.64,5.957-9.917,11.895-9.917c5.941,0,10.865,4.277,11.896,9.917
			h0.381v13.076c0,6.723,5.451,12.176,12.18,12.176h21.648c6.721,0,12.178-5.453,12.178-12.176v-13.076h0.379
			c1.031-5.64,5.957-9.917,11.891-9.917c5.943,0,10.869,4.277,11.898,9.917h0.209v13.076c0,6.723,5.453,12.176,12.176,12.176h21.648
			c6.723,0,12.174-5.453,12.174-12.176v-13.076h0.209c1.031-5.64,5.959-9.917,11.891-9.917c5.943,0,10.871,4.277,11.898,9.917h0.385
			v13.076c0,6.723,5.453,12.176,12.176,12.176h21.648c6.725,0,12.178-5.453,12.178-12.176v-19.167v-16.685v-12.182
			c-73.738-0.676-84.562-42.616-84.562-42.616s20.289,20.977,46.004,27.06c25.707,6.091,47.35-8.793,38.559-10.821
			c-8.797-2.028-30.443-36.532-17.59-50.01c12.852-13.478,27.062-0.052,40.588,21.597c13.531,21.645,42.166,47.338,73.867,44.848
			C437.575,230.729,441.127,150.758,398.512,137.899z M150.768,232.852c-5.963,3.415-12.588,5.111-19.27,5.111
			c-7.918,0-15.918-2.381-22.988-7.098c-15.893-10.59-23.666-30.494-20.803-53.246c7.381-58.682,44.723-80.975,46.309-81.896
			c3.373-1.955,7.701-0.809,9.66,2.568c1.955,3.365,0.812,7.682-2.543,9.643c-1.35,0.803-32.932,20.053-39.4,71.453
			c-3.143,24.959,9.174,36.094,14.615,39.72c8.541,5.692,19.037,6.261,27.391,1.481c11.734-6.723,17.764-22.802,16.533-44.105
			c-0.225-3.896,2.754-7.242,6.652-7.461c3.949-0.238,7.236,2.749,7.457,6.65C175.932,202.525,167.325,223.367,150.768,232.852z
			 M219.805,171.021c-13.438,0-24.381-10.935-24.381-24.377c0-13.449,10.943-24.381,24.381-24.381
			c13.445,0,24.387,10.932,24.387,24.381C244.192,160.087,233.25,171.021,219.805,171.021z"/>
	</g>
</g>
</svg>
