<?xml version="1.0" encoding="utf-8"?>
<!-- Generator: Adobe Illustrator 16.0.0, SVG Export Plug-In . SVG Version: 6.00 Build 0)  -->
<!DOCTYPE svg PUBLIC "-//W3C//DTD SVG 1.1//EN" "http://www.w3.org/Graphics/SVG/1.1/DTD/svg11.dtd">
<svg version="1.1" id="Layer_1" xmlns="http://www.w3.org/2000/svg" xmlns:xlink="http://www.w3.org/1999/xlink" x="0px" y="0px"
	 width="895.455px" height="309.5px" viewBox="0 0 895.455 309.5" enable-background="new 0 0 895.455 309.5" xml:space="preserve">
<g>
	<g>
		<g>
			<path fill="#47499F" d="M245.422,46.009l42.814,19.143c4.098,1.829,8.9-0.003,10.725-4.102l2.396-5.349
				c1.834-4.094-0.004-8.89-4.098-10.725L292,42.625l10.008-16.282c2.541-5.683-0.004-12.34-5.688-14.886L280.04,4.184
				c-5.682-2.543-12.346,0.008-14.879,5.687l-5.459,18.317l-5.26-2.352c-4.098-1.831-8.898,0.004-10.73,4.096l-2.389,5.352
				C239.495,39.375,241.329,44.174,245.422,46.009z"/>
		</g>
	</g>
</g>
<g>
	<g>
		<path fill="#565DBE" d="M219.805,134.633c-6.621,0-12.008,5.385-12.008,12.012c0,6.619,5.387,12.006,12.008,12.006
			s12.012-5.387,12.012-12.006C231.817,140.018,226.426,134.633,219.805,134.633z"/>
	</g>
	<g>
		<path fill="#565DBE" d="M398.512,137.899c-42.613-12.851-44.418,32.979-24.395,30.734c16.031-1.795,19.979,16.681,10.146,21.077
			c-14.703,6.561-27.805-15.815-41.266-42.777c-11.662-23.377-28.311-67.855-95.389-90.645
			C182.768,34.257,89.987,63.05,51.35,128.668c-3.07,5.219-5.793,10.625-8.207,16.166c-30.035,15.626-37.91,32.519-35.012,38.969
			c2.367,5.252,17.152-0.705,23.658-3.633c-12.381,55.188-3.436,110.183-3.436,110.183v2.702c0,6.723,5.451,12.176,12.178,12.176
			h21.65c6.723,0,12.172-5.453,12.172-12.176v-13.076h0.207c1.027-5.64,5.957-9.917,11.895-9.917c5.941,0,10.865,4.277,11.896,9.917
			h0.381v13.076c0,6.723,5.451,12.176,12.18,12.176h21.648c6.721,0,12.178-5.453,12.178-12.176v-13.076h0.379
			c1.031-5.64,5.957-9.917,11.891-9.917c5.943,0,10.869,4.277,11.898,9.917h0.209v13.076c0,6.723,5.453,12.176,12.176,12.176h21.648
			c6.723,0,12.174-5.453,12.174-12.176v-13.076h0.209c1.031-5.64,5.959-9.917,11.891-9.917c5.943,0,10.871,4.277,11.898,9.917h0.385
			v13.076c0,6.723,5.453,12.176,12.176,12.176h21.648c6.725,0,12.178-5.453,12.178-12.176v-19.167v-16.685v-12.182
			c-73.738-0.676-84.562-42.616-84.562-42.616s20.289,20.977,46.004,27.06c25.707,6.091,47.35-8.793,38.559-10.821
			c-8.797-2.028-30.443-36.532-17.59-50.01c12.852-13.478,27.062-0.052,40.588,21.597c13.531,21.645,42.166,47.338,73.867,44.848
			C437.575,230.729,441.127,150.758,398.512,137.899z M150.768,232.852c-5.963,3.415-12.588,5.111-19.27,5.111
			c-7.918,0-15.918-2.381-22.988-7.098c-15.893-10.59-23.666-30.494-20.803-53.246c7.381-58.682,44.723-80.975,46.309-81.896
			c3.373-1.955,7.701-0.809,9.66,2.568c1.955,3.365,0.812,7.682-2.543,9.643c-1.35,0.803-32.932,20.053-39.4,71.453
			c-3.143,24.959,9.174,36.094,14.615,39.72c8.541,5.692,19.037,6.261,27.391,1.481c11.734-6.723,17.764-22.802,16.533-44.105
			c-0.225-3.896,2.754-7.242,6.652-7.461c3.949-0.238,7.236,2.749,7.457,6.65C175.932,202.525,167.325,223.367,150.768,232.852z
			 M219.805,171.021c-13.438,0-24.381-10.935-24.381-24.377c0-13.449,10.943-24.381,24.381-24.381
			c13.445,0,24.387,10.932,24.387,24.381C244.192,160.087,233.25,171.021,219.805,171.021z"/>
	</g>
</g>
<g>
	<path d="M449.896,221.597l15.239-17.999c4.44,5.52,8.64,8.279,13.319,8.279c5.88,0,9.119-3.6,9.119-10.439V157.52h-28.558V136.16
		h56.517v63.598c0,23.039-12.119,34.318-34.678,34.318C467.775,234.076,456.855,229.756,449.896,221.597z"/>
	<path d="M598.212,154.52v65.637h-25.8v-6.239c-4.92,5.04-11.52,7.439-18.599,7.439c-15.721,0-27.6-9.239-27.6-30.599V154.52h27.119
		v31.559c0,9.359,3.24,12.479,8.52,12.479c4.68,0,9.24-3.479,9.24-13.199V154.52H598.212z"/>
	<path d="M723.249,182.719v37.438H696.13v-32.758c0-8.16-3-11.279-7.318-11.279c-4.801,0-8.52,3.239-8.52,11.999v32.038h-27.119
		v-32.758c0-8.16-2.76-11.279-7.32-11.279c-4.799,0-8.52,3.239-8.52,11.999v32.038h-27.119V154.52h25.799v6.119
		c4.92-4.92,11.4-7.319,18.6-7.319c8.52,0,15.959,3.12,20.52,9.96c5.279-6.359,12.959-9.96,21.959-9.96
		C711.97,153.319,723.249,162.079,723.249,182.719z"/>
	<path d="M805.69,187.278c0,21.119-14.52,34.078-31.68,34.078c-8.158,0-14.039-2.159-17.998-6.6v5.399h-25.799V131.12h27.119v27.839
		c3.959-3.84,9.479-5.64,16.678-5.64C791.171,153.319,805.69,166.159,805.69,187.278z M778.212,187.278
		c0-8.521-4.68-12.84-10.68-12.84s-10.68,4.319-10.68,12.84c0,8.52,4.68,12.959,10.68,12.959S778.212,195.798,778.212,187.278z"/>
	<path d="M810.731,187.278c0-19.919,15.961-33.959,38.16-33.959c22.318,0,38.158,14.04,38.158,33.959s-15.84,34.078-38.158,34.078
		C826.692,221.356,810.731,207.197,810.731,187.278z M859.571,187.278c0-8.521-4.682-12.84-10.68-12.84
		c-6,0-10.68,4.319-10.68,12.84c0,8.52,4.68,12.959,10.68,12.959C854.89,200.237,859.571,195.798,859.571,187.278z"/>
</g>
<g>
	<path fill="#58595B" d="M542.407,257.375v1.712h-8.537V244.04h2.027v13.335H542.407z"/>
	<path fill="#58595B" d="M548.665,248.282c0.777,0,1.477,0.13,2.1,0.389s1.155,0.627,1.596,1.103
		c0.441,0.477,0.779,1.052,1.014,1.728s0.352,1.43,0.352,2.263c0,0.84-0.117,1.596-0.352,2.268s-0.572,1.246-1.014,1.722
		c-0.44,0.477-0.973,0.843-1.596,1.098c-0.623,0.256-1.322,0.384-2.1,0.384c-0.784,0-1.49-0.128-2.116-0.384
		c-0.626-0.255-1.16-0.621-1.601-1.098c-0.441-0.476-0.779-1.05-1.014-1.722s-0.352-1.428-0.352-2.268
		c0-0.833,0.117-1.587,0.352-2.263s0.572-1.251,1.014-1.728c0.44-0.476,0.975-0.844,1.601-1.103S547.881,248.282,548.665,248.282z
		 M548.665,257.774c1.05,0,1.834-0.352,2.352-1.056c0.518-0.703,0.777-1.685,0.777-2.945c0-1.267-0.26-2.253-0.777-2.961
		c-0.518-0.706-1.302-1.061-2.352-1.061c-0.532,0-0.996,0.092-1.392,0.273c-0.396,0.183-0.725,0.444-0.987,0.787
		c-0.262,0.344-0.459,0.766-0.588,1.266c-0.129,0.501-0.193,1.065-0.193,1.695c0,1.261,0.26,2.242,0.781,2.945
		C546.808,257.423,547.601,257.774,548.665,257.774z"/>
	<path fill="#58595B" d="M564.226,250.341c-0.057,0.077-0.112,0.136-0.168,0.178c-0.057,0.042-0.133,0.063-0.231,0.063
		c-0.104,0-0.22-0.044-0.347-0.132c-0.125-0.087-0.281-0.184-0.467-0.288c-0.186-0.105-0.413-0.201-0.683-0.289
		c-0.27-0.087-0.601-0.131-0.992-0.131c-0.524,0-0.987,0.093-1.386,0.278c-0.399,0.186-0.734,0.453-1.003,0.803
		c-0.27,0.351-0.473,0.773-0.609,1.271c-0.136,0.497-0.204,1.054-0.204,1.67c0,0.644,0.073,1.216,0.221,1.717
		c0.146,0.5,0.354,0.92,0.624,1.26s0.595,0.599,0.977,0.777c0.382,0.178,0.81,0.268,1.286,0.268c0.455,0,0.83-0.055,1.123-0.163
		c0.295-0.108,0.537-0.229,0.73-0.362c0.192-0.133,0.354-0.254,0.482-0.362c0.13-0.108,0.258-0.162,0.384-0.162
		c0.153,0,0.272,0.06,0.356,0.178l0.525,0.683c-0.23,0.287-0.494,0.532-0.787,0.735c-0.295,0.203-0.611,0.373-0.951,0.509
		c-0.339,0.137-0.694,0.236-1.064,0.3c-0.371,0.062-0.75,0.095-1.135,0.095c-0.665,0-1.283-0.123-1.854-0.368
		s-1.065-0.6-1.485-1.065s-0.749-1.038-0.987-1.717s-0.357-1.452-0.357-2.32c0-0.791,0.111-1.522,0.332-2.194
		c0.22-0.673,0.542-1.252,0.965-1.738c0.424-0.486,0.945-0.866,1.564-1.139c0.62-0.273,1.332-0.41,2.137-0.41
		c0.75,0,1.409,0.121,1.98,0.362c0.57,0.241,1.076,0.583,1.517,1.023L564.226,250.341z"/>
	<path fill="#58595B" d="M567.312,249.952c0.588-0.567,1.222-0.99,1.9-1.271c0.68-0.28,1.432-0.42,2.258-0.42
		c0.596,0,1.123,0.098,1.586,0.294c0.462,0.196,0.85,0.469,1.166,0.818c0.314,0.351,0.553,0.774,0.713,1.271
		c0.161,0.497,0.242,1.044,0.242,1.639v6.804h-0.83c-0.182,0-0.322-0.029-0.42-0.089s-0.175-0.177-0.23-0.353l-0.211-1.008
		c-0.279,0.259-0.553,0.488-0.818,0.688c-0.266,0.2-0.546,0.368-0.84,0.505c-0.294,0.136-0.607,0.241-0.939,0.314
		c-0.333,0.073-0.702,0.11-1.108,0.11c-0.413,0-0.802-0.058-1.165-0.173c-0.364-0.116-0.682-0.289-0.951-0.521
		c-0.27-0.23-0.482-0.522-0.64-0.876s-0.236-0.772-0.236-1.255c0-0.42,0.115-0.824,0.347-1.213c0.23-0.389,0.605-0.733,1.123-1.034
		s1.193-0.548,2.027-0.74c0.832-0.192,1.854-0.303,3.065-0.331v-0.829c0-0.826-0.179-1.451-0.536-1.875
		c-0.356-0.423-0.878-0.635-1.564-0.635c-0.461,0-0.849,0.058-1.16,0.173c-0.311,0.116-0.58,0.245-0.809,0.389
		c-0.227,0.144-0.424,0.273-0.588,0.389s-0.327,0.173-0.488,0.173c-0.125,0-0.234-0.032-0.325-0.1
		c-0.091-0.066-0.168-0.148-0.231-0.246L567.312,249.952z M573.35,254.299c-0.861,0.028-1.595,0.097-2.2,0.205
		s-1.099,0.25-1.48,0.425c-0.381,0.175-0.658,0.382-0.829,0.62c-0.172,0.237-0.257,0.504-0.257,0.798
		c0,0.28,0.045,0.521,0.136,0.725s0.216,0.369,0.373,0.498c0.157,0.13,0.343,0.225,0.557,0.284s0.442,0.089,0.688,0.089
		c0.329,0,0.63-0.033,0.903-0.1s0.529-0.163,0.771-0.289s0.473-0.276,0.693-0.451s0.436-0.375,0.646-0.599V254.299z"/>
	<path fill="#58595B" d="M580.688,243.62v15.467h-1.869V243.62H580.688z"/>
	<path fill="#58595B" d="M603.19,244.04v15.047h-2.037v-6.846h-8.117v6.846h-2.037V244.04h2.037v6.71h8.117v-6.71H603.19z"/>
	<path fill="#58595B" d="M606.739,249.952c0.588-0.567,1.221-0.99,1.9-1.271s1.432-0.42,2.258-0.42c0.595,0,1.123,0.098,1.586,0.294
		c0.461,0.196,0.85,0.469,1.165,0.818c0.315,0.351,0.553,0.774,0.714,1.271c0.16,0.497,0.241,1.044,0.241,1.639v6.804h-0.829
		c-0.182,0-0.322-0.029-0.42-0.089s-0.176-0.177-0.231-0.353l-0.21-1.008c-0.279,0.259-0.553,0.488-0.818,0.688
		c-0.267,0.2-0.547,0.368-0.84,0.505c-0.295,0.136-0.607,0.241-0.94,0.314s-0.702,0.11-1.108,0.11c-0.412,0-0.801-0.058-1.165-0.173
		c-0.364-0.116-0.681-0.289-0.95-0.521c-0.27-0.23-0.482-0.522-0.641-0.876c-0.157-0.354-0.236-0.772-0.236-1.255
		c0-0.42,0.115-0.824,0.347-1.213s0.605-0.733,1.124-1.034c0.518-0.301,1.193-0.548,2.026-0.74s1.854-0.303,3.065-0.331v-0.829
		c0-0.826-0.178-1.451-0.535-1.875c-0.357-0.423-0.879-0.635-1.564-0.635c-0.462,0-0.85,0.058-1.16,0.173
		c-0.312,0.116-0.581,0.245-0.809,0.389s-0.424,0.273-0.588,0.389s-0.328,0.173-0.488,0.173c-0.126,0-0.234-0.032-0.326-0.1
		c-0.09-0.066-0.168-0.148-0.23-0.246L606.739,249.952z M612.776,254.299c-0.861,0.028-1.594,0.097-2.199,0.205
		s-1.1,0.25-1.48,0.425c-0.382,0.175-0.658,0.382-0.83,0.62c-0.172,0.237-0.257,0.504-0.257,0.798c0,0.28,0.046,0.521,0.136,0.725
		c0.092,0.203,0.216,0.369,0.373,0.498c0.158,0.13,0.344,0.225,0.557,0.284c0.214,0.06,0.443,0.089,0.688,0.089
		c0.33,0,0.631-0.033,0.903-0.1c0.273-0.066,0.53-0.163,0.772-0.289c0.241-0.126,0.473-0.276,0.692-0.451
		c0.221-0.175,0.437-0.375,0.646-0.599V254.299z"/>
	<path fill="#58595B" d="M626.983,243.62v15.467h-1.113c-0.266,0-0.434-0.13-0.504-0.389l-0.168-1.291
		c-0.455,0.546-0.973,0.986-1.555,1.322c-0.58,0.336-1.252,0.505-2.016,0.505c-0.609,0-1.162-0.118-1.658-0.353
		c-0.498-0.234-0.922-0.579-1.271-1.034s-0.619-1.021-0.809-1.701c-0.188-0.679-0.283-1.459-0.283-2.341
		c0-0.784,0.105-1.514,0.314-2.189c0.211-0.676,0.512-1.262,0.904-1.759c0.392-0.497,0.873-0.888,1.443-1.171
		s1.213-0.425,1.927-0.425c0.651,0,1.209,0.11,1.675,0.33c0.465,0.221,0.88,0.527,1.244,0.919v-5.891H626.983z M625.114,250.98
		c-0.35-0.469-0.729-0.796-1.135-0.981c-0.405-0.186-0.86-0.278-1.364-0.278c-0.987,0-1.747,0.354-2.278,1.061
		c-0.532,0.707-0.799,1.715-0.799,3.024c0,0.692,0.061,1.286,0.18,1.779c0.118,0.494,0.293,0.899,0.524,1.218
		c0.231,0.319,0.515,0.552,0.851,0.698c0.336,0.147,0.717,0.221,1.145,0.221c0.615,0,1.152-0.14,1.611-0.42
		c0.459-0.279,0.881-0.675,1.266-1.187V250.98z"/>
	<path fill="#58595B" d="M635.162,248.282c0.777,0,1.478,0.13,2.101,0.389s1.154,0.627,1.596,1.103
		c0.441,0.477,0.778,1.052,1.014,1.728c0.234,0.676,0.352,1.43,0.352,2.263c0,0.84-0.117,1.596-0.352,2.268
		c-0.235,0.672-0.572,1.246-1.014,1.722c-0.441,0.477-0.973,0.843-1.596,1.098c-0.623,0.256-1.323,0.384-2.101,0.384
		c-0.784,0-1.489-0.128-2.116-0.384c-0.626-0.255-1.16-0.621-1.601-1.098c-0.44-0.476-0.778-1.05-1.013-1.722
		c-0.235-0.672-0.353-1.428-0.353-2.268c0-0.833,0.117-1.587,0.353-2.263c0.234-0.676,0.572-1.251,1.013-1.728
		c0.44-0.476,0.975-0.844,1.601-1.103C633.673,248.412,634.378,248.282,635.162,248.282z M635.162,257.774
		c1.05,0,1.834-0.352,2.353-1.056c0.518-0.703,0.776-1.685,0.776-2.945c0-1.267-0.259-2.253-0.776-2.961
		c-0.519-0.706-1.303-1.061-2.353-1.061c-0.532,0-0.995,0.092-1.392,0.273c-0.395,0.183-0.725,0.444-0.986,0.787
		c-0.263,0.344-0.459,0.766-0.588,1.266c-0.13,0.501-0.194,1.065-0.194,1.695c0,1.261,0.261,2.242,0.782,2.945
		C633.306,257.423,634.099,257.774,635.162,257.774z"/>
	<path fill="#58595B" d="M647.804,248.282c0.777,0,1.477,0.13,2.1,0.389s1.156,0.627,1.597,1.103
		c0.44,0.477,0.778,1.052,1.013,1.728s0.352,1.43,0.352,2.263c0,0.84-0.117,1.596-0.352,2.268s-0.572,1.246-1.013,1.722
		c-0.44,0.477-0.974,0.843-1.597,1.098c-0.623,0.256-1.322,0.384-2.1,0.384c-0.783,0-1.489-0.128-2.115-0.384
		c-0.627-0.255-1.16-0.621-1.602-1.098c-0.441-0.476-0.779-1.05-1.014-1.722s-0.352-1.428-0.352-2.268
		c0-0.833,0.117-1.587,0.352-2.263s0.572-1.251,1.014-1.728c0.441-0.476,0.975-0.844,1.602-1.103
		C646.314,248.412,647.021,248.282,647.804,248.282z M647.804,257.774c1.051,0,1.834-0.352,2.352-1.056
		c0.519-0.703,0.777-1.685,0.777-2.945c0-1.267-0.259-2.253-0.777-2.961c-0.518-0.706-1.301-1.061-2.352-1.061
		c-0.531,0-0.996,0.092-1.391,0.273c-0.396,0.183-0.725,0.444-0.987,0.787c-0.263,0.344-0.459,0.766-0.589,1.266
		c-0.129,0.501-0.193,1.065-0.193,1.695c0,1.261,0.26,2.242,0.782,2.945C645.946,257.423,646.739,257.774,647.804,257.774z"/>
	<path fill="#58595B" d="M657.747,250.099c0.448-0.553,0.967-0.997,1.555-1.333s1.26-0.504,2.016-0.504
		c0.615,0,1.172,0.117,1.67,0.352c0.496,0.234,0.92,0.581,1.27,1.039c0.351,0.459,0.62,1.027,0.809,1.707
		c0.189,0.679,0.284,1.459,0.284,2.341c0,0.784-0.104,1.514-0.315,2.189c-0.21,0.676-0.513,1.26-0.908,1.754
		c-0.396,0.493-0.879,0.882-1.449,1.165s-1.213,0.426-1.926,0.426c-0.651,0-1.21-0.11-1.676-0.331
		c-0.465-0.221-0.877-0.526-1.233-0.919v4.704h-1.88V248.45h1.124c0.267,0,0.431,0.13,0.493,0.389L657.747,250.099z
		 M657.842,256.525c0.343,0.462,0.718,0.787,1.124,0.976c0.405,0.189,0.861,0.284,1.365,0.284c0.993,0,1.756-0.354,2.289-1.061
		c0.531-0.707,0.797-1.715,0.797-3.024c0-0.692-0.061-1.288-0.184-1.785c-0.122-0.496-0.299-0.904-0.529-1.223
		c-0.231-0.318-0.516-0.552-0.852-0.698c-0.336-0.147-0.717-0.221-1.145-0.221c-0.608,0-1.143,0.14-1.601,0.42
		c-0.459,0.28-0.88,0.676-1.266,1.187V256.525z"/>
	<path fill="#58595B" d="M685.582,255.979c0.112,0,0.21,0.046,0.294,0.137l0.809,0.872c-0.616,0.714-1.363,1.271-2.242,1.669
		c-0.878,0.399-1.94,0.599-3.186,0.599c-1.078,0-2.059-0.188-2.941-0.562c-0.881-0.375-1.634-0.899-2.257-1.575
		s-1.106-1.485-1.448-2.431c-0.344-0.945-0.516-1.984-0.516-3.118c0-1.135,0.179-2.174,0.536-3.119
		c0.356-0.944,0.858-1.757,1.507-2.436c0.646-0.679,1.422-1.206,2.326-1.58c0.902-0.375,1.9-0.562,2.992-0.562
		c1.07,0,2.016,0.172,2.834,0.515c0.82,0.343,1.541,0.809,2.164,1.396l-0.672,0.935c-0.043,0.07-0.097,0.128-0.163,0.174
		c-0.067,0.045-0.156,0.067-0.269,0.067c-0.125,0-0.279-0.067-0.461-0.204c-0.183-0.137-0.42-0.289-0.715-0.457
		c-0.293-0.168-0.661-0.32-1.102-0.457c-0.441-0.136-0.984-0.204-1.628-0.204c-0.777,0-1.487,0.135-2.132,0.404
		s-1.199,0.659-1.664,1.17c-0.466,0.512-0.828,1.135-1.087,1.869c-0.259,0.735-0.388,1.564-0.388,2.489
		c0,0.938,0.135,1.774,0.404,2.509c0.269,0.735,0.637,1.356,1.102,1.864c0.466,0.508,1.016,0.895,1.648,1.16
		c0.634,0.266,1.318,0.398,2.053,0.398c0.448,0,0.853-0.025,1.213-0.078c0.361-0.053,0.693-0.135,0.998-0.247
		c0.305-0.111,0.588-0.254,0.85-0.425c0.264-0.172,0.523-0.377,0.783-0.614C685.345,256.031,685.463,255.979,685.582,255.979z"/>
	<path fill="#58595B" d="M691.273,243.62v15.467h-1.869V243.62H691.273z"/>
	<path fill="#58595B" d="M703.778,248.45v10.637h-1.113c-0.266,0-0.434-0.13-0.504-0.389l-0.146-1.145
		c-0.462,0.512-0.98,0.923-1.554,1.234c-0.574,0.311-1.232,0.467-1.974,0.467c-0.582,0-1.094-0.097-1.539-0.289
		c-0.444-0.192-0.816-0.463-1.118-0.813c-0.301-0.35-0.526-0.773-0.677-1.271s-0.227-1.046-0.227-1.648v-6.783h1.869v6.783
		c0,0.805,0.184,1.428,0.552,1.869c0.367,0.44,0.929,0.661,1.685,0.661c0.553,0,1.07-0.131,1.549-0.394
		c0.48-0.263,0.923-0.625,1.328-1.087v-7.833H703.778z"/>
	<path fill="#58595B" d="M713.669,250.204c-0.084,0.154-0.213,0.23-0.388,0.23c-0.104,0-0.224-0.038-0.356-0.115
		c-0.134-0.077-0.297-0.163-0.488-0.257c-0.193-0.095-0.422-0.183-0.688-0.263s-0.581-0.121-0.944-0.121
		c-0.315,0-0.6,0.041-0.852,0.121s-0.467,0.19-0.645,0.331c-0.18,0.14-0.316,0.303-0.41,0.488c-0.095,0.186-0.142,0.387-0.142,0.604
		c0,0.272,0.079,0.5,0.235,0.683c0.158,0.182,0.366,0.339,0.625,0.472c0.26,0.134,0.553,0.251,0.883,0.353
		c0.328,0.102,0.666,0.21,1.013,0.325s0.685,0.243,1.013,0.383c0.33,0.141,0.623,0.315,0.883,0.525
		c0.259,0.21,0.467,0.467,0.625,0.771c0.157,0.305,0.236,0.671,0.236,1.098c0,0.49-0.088,0.943-0.263,1.359
		c-0.175,0.417-0.435,0.777-0.777,1.082s-0.763,0.544-1.26,0.719s-1.071,0.263-1.722,0.263c-0.742,0-1.414-0.121-2.017-0.362
		s-1.112-0.551-1.532-0.929l0.44-0.715c0.056-0.091,0.122-0.16,0.2-0.21c0.076-0.049,0.174-0.073,0.293-0.073
		c0.127,0,0.26,0.049,0.399,0.147c0.14,0.098,0.31,0.206,0.509,0.325s0.443,0.228,0.73,0.325c0.287,0.099,0.644,0.147,1.07,0.147
		c0.364,0,0.683-0.048,0.956-0.142c0.272-0.095,0.5-0.223,0.683-0.384c0.182-0.161,0.316-0.347,0.404-0.557
		c0.087-0.21,0.131-0.434,0.131-0.672c0-0.294-0.078-0.537-0.236-0.729c-0.157-0.192-0.365-0.357-0.625-0.493
		c-0.259-0.137-0.555-0.256-0.887-0.357c-0.333-0.102-0.672-0.208-1.019-0.32c-0.347-0.111-0.687-0.239-1.019-0.383
		s-0.629-0.324-0.887-0.541c-0.26-0.217-0.468-0.484-0.625-0.804c-0.158-0.318-0.236-0.705-0.236-1.16
		c0-0.405,0.084-0.796,0.252-1.171c0.168-0.374,0.412-0.703,0.734-0.986c0.322-0.284,0.718-0.51,1.188-0.678
		c0.469-0.168,1.004-0.252,1.605-0.252c0.7,0,1.328,0.11,1.885,0.331s1.038,0.523,1.444,0.908L713.669,250.204z"/>
	<path fill="#58595B" d="M720.568,259.255c-0.841,0-1.485-0.234-1.938-0.703c-0.451-0.469-0.677-1.145-0.677-2.026v-6.511h-1.281
		c-0.112,0-0.207-0.033-0.283-0.1c-0.078-0.066-0.115-0.17-0.115-0.31v-0.745l1.742-0.221l0.431-3.287
		c0.021-0.104,0.068-0.19,0.142-0.257c0.074-0.066,0.17-0.1,0.289-0.1h0.945v3.664h3.076v1.354h-3.076v6.384
		c0,0.448,0.107,0.781,0.325,0.998c0.217,0.217,0.497,0.325,0.84,0.325c0.196,0,0.366-0.026,0.509-0.078
		c0.145-0.053,0.268-0.11,0.373-0.174c0.105-0.062,0.194-0.12,0.268-0.173c0.074-0.053,0.139-0.079,0.194-0.079
		c0.099,0,0.186,0.06,0.263,0.179l0.546,0.893c-0.321,0.301-0.71,0.537-1.165,0.709
		C721.521,259.169,721.052,259.255,720.568,259.255z"/>
	<path fill="#58595B" d="M734.145,257.596c-0.231,0.28-0.507,0.523-0.829,0.729c-0.322,0.207-0.667,0.377-1.035,0.51
		c-0.367,0.133-0.746,0.232-1.139,0.299s-0.78,0.101-1.166,0.101c-0.734,0-1.412-0.125-2.031-0.373
		c-0.619-0.249-1.154-0.612-1.606-1.092s-0.804-1.073-1.056-1.78s-0.377-1.519-0.377-2.436c0-0.742,0.113-1.436,0.341-2.079
		c0.228-0.645,0.555-1.202,0.981-1.675c0.428-0.473,0.949-0.844,1.564-1.113c0.616-0.27,1.309-0.404,2.079-0.404
		c0.638,0,1.227,0.107,1.77,0.32c0.542,0.214,1.011,0.521,1.407,0.924c0.395,0.403,0.705,0.899,0.929,1.491s0.336,1.266,0.336,2.021
		c0,0.294-0.031,0.49-0.095,0.588c-0.062,0.098-0.182,0.146-0.356,0.146h-7.108c0.021,0.673,0.113,1.257,0.277,1.754
		c0.165,0.497,0.395,0.912,0.688,1.244c0.294,0.333,0.644,0.581,1.05,0.746c0.406,0.164,0.861,0.246,1.365,0.246
		c0.469,0,0.873-0.054,1.213-0.162s0.631-0.227,0.877-0.353c0.244-0.126,0.449-0.243,0.613-0.352
		c0.165-0.108,0.307-0.162,0.426-0.162c0.154,0,0.273,0.06,0.357,0.178L734.145,257.596z M732.633,252.608
		c0-0.434-0.062-0.831-0.185-1.191c-0.122-0.36-0.301-0.672-0.535-0.935s-0.52-0.466-0.855-0.609s-0.717-0.215-1.145-0.215
		c-0.896,0-1.605,0.261-2.126,0.782c-0.521,0.521-0.845,1.244-0.972,2.168H732.633z"/>
	<path fill="#58595B" d="M739.111,250.582c0.336-0.729,0.748-1.297,1.238-1.706c0.49-0.41,1.088-0.614,1.795-0.614
		c0.225,0,0.439,0.024,0.646,0.073s0.391,0.126,0.551,0.23l-0.137,1.397c-0.041,0.175-0.146,0.262-0.314,0.262
		c-0.098,0-0.24-0.021-0.43-0.062s-0.402-0.063-0.641-0.063c-0.336,0-0.635,0.05-0.898,0.147c-0.262,0.098-0.496,0.243-0.703,0.436
		s-0.393,0.431-0.557,0.714s-0.312,0.607-0.445,0.972v6.72h-1.88V248.45h1.07c0.203,0,0.343,0.039,0.421,0.115
		c0.076,0.077,0.129,0.211,0.156,0.399L739.111,250.582z"/>
	<path fill="#58595B" d="M756.625,244.04c0.924,0,1.721,0.092,2.389,0.273c0.669,0.182,1.219,0.441,1.648,0.777
		c0.431,0.336,0.747,0.747,0.95,1.233s0.305,1.034,0.305,1.644c0,0.371-0.058,0.726-0.173,1.065s-0.289,0.656-0.52,0.95
		c-0.231,0.294-0.523,0.559-0.877,0.793s-0.769,0.425-1.244,0.572c1.105,0.21,1.937,0.604,2.493,1.181
		c0.557,0.578,0.835,1.336,0.835,2.273c0,0.638-0.117,1.218-0.352,1.743s-0.577,0.977-1.029,1.354
		c-0.451,0.378-1.006,0.67-1.664,0.877c-0.658,0.206-1.407,0.31-2.247,0.31h-5.312V244.04H756.625z M753.854,245.646v5.135h2.688
		c0.574,0,1.073-0.062,1.496-0.188c0.424-0.126,0.773-0.301,1.051-0.525c0.276-0.224,0.48-0.495,0.614-0.813
		c0.133-0.318,0.199-0.667,0.199-1.045c0-0.889-0.267-1.538-0.798-1.948c-0.532-0.409-1.358-0.614-2.479-0.614H753.854z
		 M757.108,257.47c0.581,0,1.081-0.066,1.501-0.199s0.765-0.32,1.034-0.562c0.27-0.242,0.468-0.528,0.594-0.861
		c0.126-0.332,0.189-0.698,0.189-1.098c0-0.776-0.277-1.391-0.83-1.843c-0.553-0.451-1.383-0.677-2.488-0.677h-3.255v5.239H757.108z
		"/>
	<path fill="#58595B" d="M770.023,248.282c0.777,0,1.477,0.13,2.101,0.389c0.622,0.259,1.154,0.627,1.596,1.103
		c0.44,0.477,0.778,1.052,1.013,1.728s0.353,1.43,0.353,2.263c0,0.84-0.118,1.596-0.353,2.268s-0.572,1.246-1.013,1.722
		c-0.441,0.477-0.974,0.843-1.596,1.098c-0.624,0.256-1.323,0.384-2.101,0.384c-0.784,0-1.489-0.128-2.115-0.384
		c-0.627-0.255-1.16-0.621-1.602-1.098c-0.441-0.476-0.779-1.05-1.014-1.722s-0.352-1.428-0.352-2.268
		c0-0.833,0.117-1.587,0.352-2.263s0.572-1.251,1.014-1.728c0.441-0.476,0.975-0.844,1.602-1.103
		C768.534,248.412,769.239,248.282,770.023,248.282z M770.023,257.774c1.05,0,1.834-0.352,2.353-1.056
		c0.518-0.703,0.776-1.685,0.776-2.945c0-1.267-0.259-2.253-0.776-2.961c-0.519-0.706-1.303-1.061-2.353-1.061
		c-0.532,0-0.996,0.092-1.392,0.273c-0.396,0.183-0.724,0.444-0.986,0.787c-0.263,0.344-0.459,0.766-0.588,1.266
		c-0.13,0.501-0.194,1.065-0.194,1.695c0,1.261,0.261,2.242,0.782,2.945C768.167,257.423,768.959,257.774,770.023,257.774z"/>
	<path fill="#58595B" d="M782.665,248.282c0.777,0,1.477,0.13,2.101,0.389c0.622,0.259,1.154,0.627,1.596,1.103
		c0.44,0.477,0.778,1.052,1.013,1.728s0.353,1.43,0.353,2.263c0,0.84-0.118,1.596-0.353,2.268s-0.572,1.246-1.013,1.722
		c-0.441,0.477-0.974,0.843-1.596,1.098c-0.624,0.256-1.323,0.384-2.101,0.384c-0.784,0-1.489-0.128-2.115-0.384
		c-0.627-0.255-1.16-0.621-1.602-1.098c-0.441-0.476-0.779-1.05-1.014-1.722s-0.352-1.428-0.352-2.268
		c0-0.833,0.117-1.587,0.352-2.263s0.572-1.251,1.014-1.728c0.441-0.476,0.975-0.844,1.602-1.103
		C781.176,248.412,781.881,248.282,782.665,248.282z M782.665,257.774c1.05,0,1.834-0.352,2.353-1.056
		c0.518-0.703,0.776-1.685,0.776-2.945c0-1.267-0.259-2.253-0.776-2.961c-0.519-0.706-1.303-1.061-2.353-1.061
		c-0.532,0-0.996,0.092-1.392,0.273c-0.396,0.183-0.724,0.444-0.986,0.787c-0.263,0.344-0.459,0.766-0.588,1.266
		c-0.13,0.501-0.194,1.065-0.194,1.695c0,1.261,0.261,2.242,0.782,2.945C780.809,257.423,781.601,257.774,782.665,257.774z"/>
	<path fill="#58595B" d="M793.9,259.255c-0.84,0-1.486-0.234-1.938-0.703s-0.677-1.145-0.677-2.026v-6.511h-1.281
		c-0.112,0-0.207-0.033-0.283-0.1c-0.077-0.066-0.116-0.17-0.116-0.31v-0.745l1.743-0.221l0.431-3.287
		c0.021-0.104,0.068-0.19,0.142-0.257s0.17-0.1,0.289-0.1h0.945v3.664h3.076v1.354h-3.076v6.384c0,0.448,0.108,0.781,0.325,0.998
		s0.497,0.325,0.84,0.325c0.196,0,0.365-0.026,0.509-0.078c0.144-0.053,0.269-0.11,0.373-0.174c0.105-0.062,0.194-0.12,0.268-0.173
		c0.074-0.053,0.139-0.079,0.194-0.079c0.099,0,0.186,0.06,0.263,0.179l0.546,0.893c-0.322,0.301-0.71,0.537-1.165,0.709
		C794.853,259.169,794.383,259.255,793.9,259.255z"/>
	<path fill="#58595B" d="M805.093,250.204c-0.084,0.154-0.214,0.23-0.389,0.23c-0.105,0-0.225-0.038-0.357-0.115
		s-0.296-0.163-0.488-0.257c-0.192-0.095-0.422-0.183-0.688-0.263s-0.581-0.121-0.945-0.121c-0.314,0-0.598,0.041-0.85,0.121
		c-0.253,0.08-0.468,0.19-0.646,0.331c-0.179,0.14-0.314,0.303-0.409,0.488s-0.142,0.387-0.142,0.604c0,0.272,0.078,0.5,0.236,0.683
		c0.157,0.182,0.365,0.339,0.624,0.472c0.26,0.134,0.554,0.251,0.883,0.353c0.328,0.102,0.666,0.21,1.013,0.325
		s0.685,0.243,1.014,0.383c0.329,0.141,0.623,0.315,0.882,0.525s0.467,0.467,0.625,0.771c0.157,0.305,0.236,0.671,0.236,1.098
		c0,0.49-0.088,0.943-0.263,1.359c-0.175,0.417-0.435,0.777-0.777,1.082s-0.763,0.544-1.26,0.719s-1.071,0.263-1.722,0.263
		c-0.742,0-1.414-0.121-2.017-0.362c-0.602-0.241-1.113-0.551-1.533-0.929l0.441-0.715c0.056-0.091,0.122-0.16,0.199-0.21
		c0.077-0.049,0.175-0.073,0.294-0.073c0.126,0,0.259,0.049,0.399,0.147c0.14,0.098,0.31,0.206,0.509,0.325
		c0.2,0.119,0.443,0.228,0.73,0.325c0.286,0.099,0.644,0.147,1.07,0.147c0.364,0,0.683-0.048,0.956-0.142
		c0.272-0.095,0.5-0.223,0.683-0.384c0.182-0.161,0.316-0.347,0.404-0.557c0.087-0.21,0.131-0.434,0.131-0.672
		c0-0.294-0.079-0.537-0.236-0.729s-0.366-0.357-0.625-0.493c-0.259-0.137-0.555-0.256-0.887-0.357
		c-0.333-0.102-0.672-0.208-1.019-0.32c-0.347-0.111-0.687-0.239-1.019-0.383c-0.333-0.144-0.629-0.324-0.888-0.541
		s-0.467-0.484-0.624-0.804c-0.158-0.318-0.236-0.705-0.236-1.16c0-0.405,0.084-0.796,0.252-1.171
		c0.168-0.374,0.413-0.703,0.734-0.986c0.322-0.284,0.718-0.51,1.187-0.678s1.005-0.252,1.606-0.252c0.7,0,1.329,0.11,1.885,0.331
		c0.557,0.221,1.038,0.523,1.444,0.908L805.093,250.204z"/>
	<path fill="#58595B" d="M811.991,259.255c-0.84,0-1.486-0.234-1.938-0.703s-0.677-1.145-0.677-2.026v-6.511h-1.281
		c-0.112,0-0.207-0.033-0.283-0.1c-0.077-0.066-0.116-0.17-0.116-0.31v-0.745l1.743-0.221l0.431-3.287
		c0.021-0.104,0.068-0.19,0.142-0.257s0.17-0.1,0.289-0.1h0.945v3.664h3.076v1.354h-3.076v6.384c0,0.448,0.108,0.781,0.325,0.998
		s0.497,0.325,0.84,0.325c0.196,0,0.365-0.026,0.509-0.078c0.144-0.053,0.269-0.11,0.373-0.174c0.105-0.062,0.194-0.12,0.268-0.173
		c0.074-0.053,0.139-0.079,0.194-0.079c0.099,0,0.186,0.06,0.263,0.179l0.546,0.893c-0.322,0.301-0.71,0.537-1.165,0.709
		C812.943,259.169,812.474,259.255,811.991,259.255z"/>
	<path fill="#58595B" d="M818.764,250.582c0.336-0.729,0.749-1.297,1.239-1.706c0.49-0.41,1.088-0.614,1.795-0.614
		c0.225,0,0.439,0.024,0.646,0.073c0.206,0.049,0.39,0.126,0.551,0.23l-0.137,1.397c-0.042,0.175-0.146,0.262-0.314,0.262
		c-0.099,0-0.241-0.021-0.431-0.062s-0.402-0.063-0.641-0.063c-0.336,0-0.635,0.05-0.897,0.147s-0.497,0.243-0.704,0.436
		c-0.206,0.192-0.392,0.431-0.556,0.714c-0.165,0.283-0.313,0.607-0.446,0.972v6.72h-1.88V248.45h1.071
		c0.203,0,0.343,0.039,0.42,0.115c0.077,0.077,0.129,0.211,0.157,0.399L818.764,250.582z"/>
	<path fill="#58595B" d="M824.927,249.952c0.589-0.567,1.222-0.99,1.901-1.271c0.679-0.28,1.431-0.42,2.257-0.42
		c0.595,0,1.124,0.098,1.586,0.294s0.851,0.469,1.165,0.818c0.315,0.351,0.553,0.774,0.714,1.271
		c0.161,0.497,0.242,1.044,0.242,1.639v6.804h-0.83c-0.182,0-0.321-0.029-0.42-0.089c-0.098-0.06-0.175-0.177-0.23-0.353
		l-0.21-1.008c-0.28,0.259-0.554,0.488-0.819,0.688c-0.266,0.2-0.546,0.368-0.84,0.505c-0.294,0.136-0.607,0.241-0.939,0.314
		c-0.333,0.073-0.702,0.11-1.108,0.11c-0.413,0-0.802-0.058-1.165-0.173c-0.364-0.116-0.681-0.289-0.95-0.521
		c-0.27-0.23-0.483-0.522-0.641-0.876s-0.236-0.772-0.236-1.255c0-0.42,0.115-0.824,0.347-1.213c0.23-0.389,0.605-0.733,1.123-1.034
		c0.519-0.301,1.193-0.548,2.026-0.74s1.855-0.303,3.066-0.331v-0.829c0-0.826-0.179-1.451-0.535-1.875
		c-0.357-0.423-0.879-0.635-1.565-0.635c-0.462,0-0.849,0.058-1.16,0.173c-0.312,0.116-0.581,0.245-0.809,0.389
		s-0.423,0.273-0.588,0.389c-0.164,0.115-0.327,0.173-0.488,0.173c-0.126,0-0.234-0.032-0.325-0.1
		c-0.091-0.066-0.168-0.148-0.23-0.246L824.927,249.952z M830.965,254.299c-0.861,0.028-1.595,0.097-2.2,0.205
		s-1.099,0.25-1.48,0.425c-0.381,0.175-0.658,0.382-0.829,0.62c-0.172,0.237-0.258,0.504-0.258,0.798
		c0,0.28,0.046,0.521,0.137,0.725s0.216,0.369,0.373,0.498c0.157,0.13,0.343,0.225,0.557,0.284c0.213,0.06,0.442,0.089,0.688,0.089
		c0.329,0,0.63-0.033,0.903-0.1c0.272-0.066,0.53-0.163,0.771-0.289s0.473-0.276,0.693-0.451c0.22-0.175,0.436-0.375,0.646-0.599
		V254.299z"/>
	<path fill="#58595B" d="M838.157,250.099c0.448-0.553,0.966-0.997,1.554-1.333s1.26-0.504,2.017-0.504
		c0.615,0,1.172,0.117,1.669,0.352s0.921,0.581,1.271,1.039c0.35,0.459,0.619,1.027,0.809,1.707
		c0.189,0.679,0.283,1.459,0.283,2.341c0,0.784-0.104,1.514-0.314,2.189s-0.513,1.26-0.908,1.754
		c-0.396,0.493-0.879,0.882-1.449,1.165s-1.213,0.426-1.927,0.426c-0.651,0-1.209-0.11-1.675-0.331s-0.877-0.526-1.233-0.919v4.704
		h-1.88V248.45h1.123c0.267,0,0.431,0.13,0.494,0.389L838.157,250.099z M838.252,256.525c0.343,0.462,0.717,0.787,1.123,0.976
		c0.406,0.189,0.861,0.284,1.365,0.284c0.994,0,1.757-0.354,2.289-1.061c0.531-0.707,0.798-1.715,0.798-3.024
		c0-0.692-0.062-1.288-0.184-1.785c-0.123-0.496-0.3-0.904-0.53-1.223c-0.231-0.318-0.515-0.552-0.851-0.698
		c-0.336-0.147-0.718-0.221-1.145-0.221c-0.609,0-1.143,0.14-1.602,0.42c-0.458,0.28-0.88,0.676-1.265,1.187V256.525z"/>
	<path fill="#58595B" d="M850.662,250.099c0.448-0.553,0.966-0.997,1.554-1.333s1.26-0.504,2.017-0.504
		c0.615,0,1.172,0.117,1.669,0.352s0.921,0.581,1.271,1.039c0.35,0.459,0.619,1.027,0.809,1.707
		c0.189,0.679,0.283,1.459,0.283,2.341c0,0.784-0.104,1.514-0.314,2.189s-0.513,1.26-0.908,1.754
		c-0.396,0.493-0.879,0.882-1.449,1.165s-1.213,0.426-1.927,0.426c-0.651,0-1.209-0.11-1.675-0.331s-0.877-0.526-1.233-0.919v4.704
		h-1.88V248.45H850c0.267,0,0.431,0.13,0.494,0.389L850.662,250.099z M850.757,256.525c0.343,0.462,0.717,0.787,1.123,0.976
		c0.406,0.189,0.861,0.284,1.365,0.284c0.994,0,1.757-0.354,2.289-1.061c0.531-0.707,0.798-1.715,0.798-3.024
		c0-0.692-0.062-1.288-0.184-1.785c-0.123-0.496-0.3-0.904-0.53-1.223c-0.231-0.318-0.515-0.552-0.851-0.698
		c-0.336-0.147-0.718-0.221-1.145-0.221c-0.609,0-1.143,0.14-1.602,0.42c-0.458,0.28-0.88,0.676-1.265,1.187V256.525z"/>
	<path fill="#58595B" d="M870.014,257.596c-0.23,0.28-0.508,0.523-0.829,0.729c-0.322,0.207-0.667,0.377-1.034,0.51
		c-0.368,0.133-0.748,0.232-1.14,0.299s-0.78,0.101-1.165,0.101c-0.735,0-1.413-0.125-2.032-0.373
		c-0.619-0.249-1.155-0.612-1.606-1.092s-0.803-1.073-1.056-1.78c-0.252-0.707-0.378-1.519-0.378-2.436
		c0-0.742,0.114-1.436,0.342-2.079c0.228-0.645,0.555-1.202,0.981-1.675s0.948-0.844,1.564-1.113s1.31-0.404,2.079-0.404
		c0.637,0,1.227,0.107,1.77,0.32c0.542,0.214,1.012,0.521,1.407,0.924c0.395,0.403,0.705,0.899,0.929,1.491s0.336,1.266,0.336,2.021
		c0,0.294-0.031,0.49-0.095,0.588c-0.062,0.098-0.182,0.146-0.356,0.146h-7.108c0.021,0.673,0.113,1.257,0.278,1.754
		c0.164,0.497,0.394,0.912,0.688,1.244c0.294,0.333,0.644,0.581,1.05,0.746c0.406,0.164,0.861,0.246,1.365,0.246
		c0.469,0,0.873-0.054,1.213-0.162c0.339-0.108,0.632-0.227,0.877-0.353c0.244-0.126,0.449-0.243,0.614-0.352
		c0.164-0.108,0.306-0.162,0.425-0.162c0.154,0,0.273,0.06,0.357,0.178L870.014,257.596z M868.502,252.608
		c0-0.434-0.062-0.831-0.184-1.191c-0.123-0.36-0.302-0.672-0.536-0.935s-0.52-0.466-0.855-0.609s-0.718-0.215-1.145-0.215
		c-0.896,0-1.604,0.261-2.126,0.782s-0.846,1.244-0.972,2.168H868.502z"/>
	<path fill="#58595B" d="M874.979,250.582c0.336-0.729,0.749-1.297,1.239-1.706c0.49-0.41,1.088-0.614,1.795-0.614
		c0.225,0,0.439,0.024,0.646,0.073c0.206,0.049,0.39,0.126,0.551,0.23l-0.137,1.397c-0.042,0.175-0.146,0.262-0.314,0.262
		c-0.099,0-0.241-0.021-0.431-0.062s-0.402-0.063-0.641-0.063c-0.336,0-0.635,0.05-0.897,0.147s-0.497,0.243-0.704,0.436
		c-0.206,0.192-0.392,0.431-0.556,0.714c-0.165,0.283-0.313,0.607-0.446,0.972v6.72h-1.88V248.45h1.071
		c0.203,0,0.343,0.039,0.42,0.115c0.077,0.077,0.129,0.211,0.157,0.399L874.979,250.582z"/>
</g>
</svg>
